<?xml version="1.0" encoding="utf-8"?>
<!-- Generator: Adobe Illustrator 16.0.0, SVG Export Plug-In . SVG Version: 6.00 Build 0)  -->
<!DOCTYPE svg PUBLIC "-//W3C//DTD SVG 1.1//EN" "http://www.w3.org/Graphics/SVG/1.1/DTD/svg11.dtd">
<svg version="1.1" id="Layer_1" xmlns="http://www.w3.org/2000/svg" xmlns:xlink="http://www.w3.org/1999/xlink" x="0px" y="0px"
	 width="125px" height="49px" viewBox="0 0 125 49" enable-background="new 0 0 125 49" xml:space="preserve">
<rect x="-113.072" y="-192.676" display="none" fill="#474EA1" stroke="#000000" stroke-miterlimit="10" width="340" height="126.352"/>
<rect x="239.167" y="-192.889" fill="#474EA1" stroke="#000000" stroke-miterlimit="10" width="340" height="126.352"/>
<g>
	<g>
		<path fill="#FFFFFF" d="M332.884-109.548h-3.616c-0.165,0-0.321,0.065-0.437,0.188c-0.082,0.083-0.189,0.231-0.189,0.462v19.422
			c0,0.166,0.073,0.33,0.173,0.42c0.115,0.134,0.279,0.206,0.453,0.206h3.616c0.255,0,0.411-0.131,0.453-0.182
			c0.123-0.124,0.197-0.278,0.197-0.444v-19.422c0-0.174-0.066-0.329-0.189-0.462C333.213-109.482,333.057-109.548,332.884-109.548z
			"/>
		<path fill="#FFFFFF" d="M361.574-101.369h-16.952c-0.338,0-0.609-0.116-0.856-0.355c-0.248-0.246-0.354-0.518-0.354-0.873v-1.4
			c0-0.353,0.115-0.632,0.354-0.871c0.247-0.247,0.519-0.354,0.856-0.354h21.301c0.115,0,0.28-0.032,0.437-0.189
			c0.124-0.124,0.189-0.279,0.189-0.437v-3.063c0-0.116-0.032-0.281-0.189-0.446c-0.124-0.114-0.271-0.181-0.437-0.181h-21.301
			c-1.672,0-3.122,0.602-4.308,1.788c-1.187,1.186-1.788,2.636-1.788,4.307v0.296c0,1.672,0.601,3.122,1.788,4.315
			c1.186,1.188,2.636,1.789,4.308,1.789h16.952c0.338,0,0.61,0.114,0.848,0.362c0.247,0.246,0.362,0.527,0.362,0.864v1.426
			c0,0.337-0.115,0.609-0.354,0.857c-0.246,0.248-0.518,0.354-0.856,0.354h-21.302c-0.165,0-0.313,0.065-0.445,0.188
			c-0.115,0.124-0.181,0.28-0.181,0.454v3.039c0,0.181,0.065,0.345,0.181,0.452c0.124,0.126,0.28,0.198,0.445,0.198h21.302
			c1.672,0,3.129-0.601,4.316-1.795c1.186-1.195,1.788-2.643,1.788-4.316v-0.281c0-1.688-0.602-3.146-1.788-4.332
			C364.696-100.77,363.247-101.369,361.574-101.369z"/>
		<path fill="#FFFFFF" d="M469.514-109.548h-22.405c-1.688,0-3.146,0.602-4.332,1.786c-1.187,1.187-1.788,2.646-1.788,4.332v8.459
			c0,1.69,0.602,3.147,1.788,4.335c1.186,1.186,2.644,1.786,4.332,1.786h22.405c0.256,0,0.412-0.131,0.453-0.182
			c0.123-0.124,0.197-0.288,0.197-0.469v-3.039c0-0.116-0.032-0.289-0.188-0.436c-0.125-0.125-0.28-0.189-0.462-0.189h-22.405
			c-0.354,0-0.625-0.116-0.873-0.363c-0.247-0.246-0.362-0.528-0.362-0.874v-9.604c0-0.338,0.115-0.617,0.362-0.864
			c0.239-0.247,0.52-0.363,0.873-0.363h22.405c0.172,0,0.337-0.065,0.462-0.188c0.124-0.125,0.188-0.272,0.188-0.438v-3.04
			c0-0.174-0.064-0.329-0.188-0.462C469.844-109.482,469.686-109.548,469.514-109.548z"/>
		<path fill="#FFFFFF" d="M323.008-93.164h-22.405c-0.354,0-0.626-0.116-0.873-0.363c-0.248-0.246-0.363-0.528-0.363-0.874v-2.637
			h22.981c0.182,0,0.346-0.064,0.461-0.189c0.124-0.122,0.19-0.279,0.19-0.46v-3.04c0-0.173-0.066-0.337-0.19-0.461
			c-0.124-0.115-0.28-0.181-0.453-0.181h-22.981v-0.034h-4.885v6.426c0,1.69,0.601,3.146,1.788,4.333
			c1.186,1.185,2.644,1.789,4.333,1.789h22.405c0.256,0,0.412-0.135,0.453-0.184c0.124-0.123,0.198-0.288,0.198-0.47v-3.039
			c0-0.116-0.033-0.288-0.189-0.436C323.346-93.1,323.181-93.164,323.008-93.164z"/>
		<path fill="#FFFFFF" d="M323.46-109.367c-0.124-0.115-0.28-0.181-0.453-0.181h-22.405c-1.688,0-3.147,0.602-4.333,1.786
			c-0.552,0.553-0.979,1.178-1.285,1.869l-0.288,0.653H323c0.172,0,0.336-0.067,0.46-0.19c0.124-0.123,0.189-0.271,0.189-0.438
			v-3.039C323.65-109.078,323.584-109.235,323.46-109.367L323.46-109.367z"/>
	</g>
	<g>
		<g>
			<path fill="#FFFFFF" d="M354.481-141.534l25.635-24.893c1.392-1.352,3.616-1.343,4.991,0.024l18.534,18.369
				c0.124,0.116,0.278,0.19,0.453,0.19h13.047c0.568,0,0.856-0.693,0.453-1.096l-9.844-9.844l7.867-7.644
				c1.394-1.352,3.616-1.343,4.99,0.024l18.534,18.369c0.125,0.116,0.28,0.19,0.452,0.19h13.049c0.568,0,0.856-0.693,0.452-1.096
				l-27.8-27.8c-1.779-1.78-4.652-1.78-6.433-0.009l-14.555,14.515l-14.515-14.515c-1.779-1.779-4.654-1.779-6.433-0.008
				l-37.784,37.784c-0.296,0.288-0.09,0.8,0.322,0.8h107.487v-3.361H354.481z"/>
		</g>
		<rect x="346.221" y="-131.212" fill="#FFFFFF" width="107.156" height="3.361"/>
	</g>
	<path fill="#FFFFFF" d="M401.838-103.43c0-1.671-0.602-3.129-1.796-4.322c-1.194-1.194-2.644-1.796-4.325-1.796h-22.405
		c-0.172,0-0.338,0.065-0.461,0.188c-0.082,0.083-0.189,0.231-0.189,0.462v19.422c0,0.166,0.074,0.33,0.172,0.42
		c0.124,0.134,0.289,0.2,0.47,0.2h22.405c1.672,0,3.13-0.604,4.324-1.789c1.195-1.187,1.796-2.636,1.796-4.316v-0.298
		c0-1.507-0.486-2.834-1.45-3.953c0.964-1.112,1.45-2.447,1.45-3.954v-0.264H401.838z M396.944-102.581
		c0,0.339-0.115,0.617-0.371,0.865c-0.247,0.247-0.527,0.37-0.865,0.37h-16.532l-2.916,4.317h19.448
		c0.346,0,0.618,0.113,0.865,0.362c0.248,0.247,0.362,0.518,0.362,0.873v1.4c0,0.354-0.115,0.627-0.362,0.873
		c-0.247,0.248-0.527,0.364-0.873,0.364h-18.163v-2.456v-1.409v-4.316v-3.863h18.163c0.346,0,0.618,0.116,0.865,0.363
		c0.248,0.248,0.362,0.511,0.362,0.848v1.408H396.944z"/>
	<path fill="#FFFFFF" d="M434.201-107.762c-1.195-1.185-2.645-1.786-4.316-1.786h-16.937c-1.688,0-3.146,0.602-4.331,1.786
		c-1.187,1.187-1.789,2.636-1.789,4.308V-89.5c0,0.181,0.075,0.354,0.175,0.444c0.081,0.091,0.229,0.2,0.469,0.2h3.616
		c0.164,0,0.328-0.066,0.428-0.184c0.123-0.123,0.197-0.288,0.197-0.47v-2.322v-3.534v-4.315v-3.616v-0.727
		c0-0.353,0.116-0.632,0.355-0.87c0.246-0.248,0.519-0.355,0.872-0.355h16.936c0.338,0,0.617,0.116,0.866,0.363
		c0.246,0.246,0.361,0.52,0.361,0.871v4.334h-17.602l-2.381,4.315h19.974v5.856c0,0.256,0.133,0.412,0.182,0.453
		c0.124,0.126,0.28,0.2,0.445,0.2h3.616c0.256,0,0.411-0.135,0.453-0.184c0.123-0.123,0.197-0.288,0.197-0.47v-13.953
		C435.998-105.126,435.396-106.575,434.201-107.762z"/>
	<g>
		<path fill="#FFFFFF" d="M480.041-108.906c0-0.172-0.066-0.329-0.189-0.461c-0.123-0.115-0.271-0.181-0.437-0.181h-3.616
			c-0.173,0-0.337,0.065-0.462,0.188c-0.124,0.124-0.188,0.281-0.188,0.462v19.422c0,0.172,0.074,0.337,0.172,0.42
			c0.125,0.134,0.29,0.2,0.471,0.2h3.617c0.162,0,0.327-0.066,0.427-0.184c0.123-0.123,0.198-0.28,0.198-0.445v-7.554h0.074
			L480.041-108.906z"/>
		<path fill="#FFFFFF" d="M504.136-109.359L504.136-109.359c-0.125-0.123-0.288-0.181-0.462-0.181h-3.6
			c-0.173,0-0.338,0.066-0.47,0.197c-0.116,0.124-0.173,0.281-0.173,0.453v7.537h-17.216l-2.685,4.332h19.9v7.553
			c0,0.164,0.066,0.322,0.173,0.429c0.116,0.125,0.287,0.199,0.47,0.199h3.6c0.257,0,0.411-0.134,0.453-0.183
			c0.123-0.123,0.197-0.281,0.197-0.445v-19.422C504.324-109.078,504.26-109.235,504.136-109.359z"/>
	</g>
</g>
<path fill="#FFFFFF" d="M514.629-119.685c-3.109,0-5.645,2.535-5.645,5.645s2.535,5.646,5.645,5.646s5.645-2.537,5.645-5.646
	S517.748-119.685,514.629-119.685z M519.006-114.04c0,2.406-1.961,4.367-4.367,4.367c-2.404,0-4.365-1.961-4.365-4.367
	c0-2.416,1.961-4.365,4.365-4.365C517.045-118.405,519.006-116.444,519.006-114.04z"/>
<g>
	<path fill="#FFFFFF" d="M513.838-113.497v2.512h-1.203v-6.445h1.961c0.445,0,0.813,0.043,1.127,0.141
		c0.314,0.088,0.574,0.217,0.77,0.379c0.205,0.164,0.346,0.357,0.443,0.586c0.098,0.227,0.141,0.477,0.141,0.748
		c0,0.217-0.031,0.422-0.098,0.617c-0.064,0.195-0.15,0.367-0.27,0.531c-0.119,0.162-0.271,0.291-0.445,0.41
		c-0.172,0.119-0.379,0.217-0.605,0.283c0.15,0.086,0.281,0.205,0.389,0.367l1.615,2.383h-1.084c-0.107,0-0.195-0.021-0.26-0.064
		c-0.076-0.043-0.131-0.098-0.184-0.174l-1.355-2.057c-0.053-0.076-0.107-0.131-0.162-0.164c-0.064-0.031-0.15-0.053-0.27-0.053
		H513.838L513.838-113.497z M513.838-114.354h0.748c0.227,0,0.422-0.031,0.596-0.086c0.162-0.055,0.303-0.131,0.41-0.238
		c0.109-0.098,0.186-0.217,0.238-0.357c0.055-0.141,0.076-0.293,0.076-0.455c0-0.324-0.107-0.574-0.324-0.758
		c-0.217-0.174-0.541-0.26-0.986-0.26h-0.77v2.154H513.838z"/>
</g>
<g>
	<path fill="#FFFFFF" d="M145.472-124.107c-3.581,0-6.5,2.919-6.5,6.5c0,3.58,2.919,6.502,6.5,6.502s6.5-2.922,6.5-6.502
		C151.972-121.188,149.063-124.107,145.472-124.107z M150.512-117.607c0,2.771-2.258,5.029-5.029,5.029
		c-2.769,0-5.027-2.259-5.027-5.029c0-2.782,2.258-5.027,5.027-5.027C148.254-122.635,150.512-120.376,150.512-117.607z"/>
	<g>
		<path fill="#FFFFFF" d="M144.561-116.982v2.893h-1.385v-7.423h2.258c0.513,0,0.935,0.05,1.297,0.162
			c0.363,0.102,0.662,0.25,0.886,0.437c0.236,0.188,0.398,0.412,0.511,0.676c0.112,0.26,0.162,0.548,0.162,0.861
			c0,0.249-0.036,0.485-0.113,0.711c-0.074,0.224-0.173,0.422-0.311,0.611c-0.137,0.186-0.313,0.335-0.512,0.472
			c-0.198,0.138-0.437,0.249-0.697,0.327c0.173,0.098,0.324,0.235,0.447,0.422l1.86,2.744h-1.248c-0.124,0-0.225-0.024-0.299-0.074
			c-0.087-0.05-0.15-0.113-0.211-0.2l-1.561-2.368c-0.06-0.088-0.123-0.151-0.187-0.189c-0.074-0.036-0.173-0.061-0.31-0.061
			H144.561L144.561-116.982z M144.561-117.97h0.861c0.261,0,0.486-0.035,0.686-0.099c0.187-0.063,0.349-0.15,0.473-0.274
			c0.125-0.113,0.213-0.25,0.274-0.411c0.063-0.162,0.088-0.338,0.088-0.525c0-0.373-0.124-0.661-0.374-0.873
			c-0.25-0.199-0.623-0.298-1.136-0.298h-0.887v2.48H144.561z"/>
	</g>
	<g>
		<g>
			<path fill="#FFFFFF" d="M9.568-111.967h-2.64c-0.121,0-0.235,0.048-0.319,0.138c-0.06,0.061-0.138,0.169-0.138,0.337v14.179
				c0,0.12,0.054,0.241,0.126,0.307c0.084,0.098,0.204,0.151,0.331,0.151h2.64c0.187,0,0.3-0.097,0.331-0.134
				c0.09-0.09,0.145-0.204,0.145-0.324v-14.179c0-0.127-0.048-0.24-0.138-0.337C9.808-111.919,9.694-111.967,9.568-111.967z"/>
			<path fill="#FFFFFF" d="M30.513-105.996H18.137c-0.247,0-0.445-0.085-0.625-0.26c-0.181-0.18-0.259-0.378-0.259-0.637v-1.022
				c0-0.257,0.084-0.462,0.259-0.637c0.18-0.18,0.379-0.258,0.625-0.258h15.55c0.084,0,0.205-0.024,0.319-0.139
				c0.09-0.09,0.138-0.204,0.138-0.319v-2.236c0-0.084-0.024-0.205-0.138-0.325c-0.09-0.083-0.198-0.132-0.319-0.132h-15.55
				c-1.221,0-2.28,0.438-3.145,1.305c-0.867,0.866-1.305,1.925-1.305,3.145v0.216c0,1.221,0.438,2.279,1.305,3.151
				c0.865,0.866,1.924,1.306,3.145,1.306h12.375c0.247,0,0.445,0.083,0.619,0.265c0.18,0.18,0.264,0.385,0.264,0.631v1.04
				c0,0.246-0.084,0.446-0.258,0.626c-0.18,0.181-0.378,0.259-0.625,0.259H14.961c-0.12,0-0.228,0.048-0.325,0.138
				c-0.084,0.09-0.132,0.204-0.132,0.331v2.218c0,0.133,0.048,0.253,0.132,0.331c0.091,0.092,0.205,0.146,0.325,0.146h15.551
				c1.221,0,2.285-0.439,3.151-1.312c0.866-0.872,1.305-1.93,1.305-3.151v-0.205c0-1.232-0.439-2.297-1.305-3.162
				C32.792-105.559,31.733-105.996,30.513-105.996z"/>
			<path fill="#FFFFFF" d="M109.312-111.967H92.955c-1.233,0-2.297,0.439-3.163,1.305c-0.866,0.866-1.305,1.931-1.305,3.162v6.176
				c0,1.233,0.439,2.297,1.305,3.164c0.865,0.865,1.93,1.305,3.163,1.305h16.356c0.187,0,0.3-0.097,0.331-0.134
				c0.09-0.09,0.145-0.21,0.145-0.343v-2.218c0-0.085-0.024-0.212-0.138-0.317c-0.091-0.092-0.205-0.139-0.337-0.139H92.955
				c-0.258,0-0.457-0.085-0.638-0.265c-0.18-0.181-0.264-0.387-0.264-0.639v-7.012c0-0.246,0.084-0.449,0.264-0.631
				c0.175-0.18,0.38-0.265,0.638-0.265h16.356c0.126,0,0.246-0.048,0.337-0.138c0.09-0.091,0.138-0.198,0.138-0.318v-2.22
				c0-0.127-0.048-0.24-0.138-0.337C109.552-111.919,109.438-111.967,109.312-111.967z"/>
			<path fill="#FFFFFF" d="M2.358-100.006h-16.356c-0.259,0-0.457-0.085-0.638-0.265c-0.18-0.181-0.265-0.387-0.265-0.639v-1.925
				H1.876c0.132,0,0.252-0.048,0.337-0.139c0.09-0.09,0.139-0.204,0.139-0.336v-2.22c0-0.125-0.048-0.246-0.139-0.336
				c-0.09-0.084-0.205-0.132-0.331-0.132h-16.777v-0.025h-3.566v4.691c0,1.233,0.438,2.297,1.305,3.163
				c0.866,0.865,1.93,1.306,3.163,1.306H2.364c0.187,0,0.3-0.098,0.331-0.133c0.09-0.091,0.145-0.211,0.145-0.343v-2.22
				c0-0.084-0.024-0.21-0.138-0.317C2.604-99.959,2.484-100.006,2.358-100.006z"/>
			<path fill="#FFFFFF" d="M2.688-111.834c-0.09-0.085-0.204-0.133-0.331-0.133h-16.356c-1.233,0-2.297,0.439-3.163,1.305
				c-0.403,0.403-0.715,0.859-0.938,1.364l-0.21,0.477H2.352c0.126,0,0.246-0.049,0.336-0.139c0.09-0.091,0.138-0.199,0.138-0.319
				v-2.219C2.827-111.624,2.778-111.739,2.688-111.834L2.688-111.834z"/>
		</g>
		<g>
			<g>
				<path fill="#FFFFFF" d="M25.334-135.317l18.714-18.173c1.016-0.986,2.64-0.979,3.644,0.019l13.53,13.409
					c0.09,0.084,0.205,0.139,0.331,0.139h9.525c0.415,0,0.625-0.506,0.331-0.8l-7.186-7.187l5.743-5.58
					c1.017-0.986,2.64-0.979,3.644,0.019l13.53,13.409c0.091,0.084,0.205,0.139,0.331,0.139h9.525c0.416,0,0.625-0.506,0.331-0.8
					l-20.295-20.295c-1.299-1.3-3.397-1.3-4.695-0.007L61.71-150.43l-10.596-10.596c-1.299-1.299-3.398-1.299-4.697-0.006
					l-27.583,27.584c-0.216,0.211-0.066,0.584,0.235,0.584h78.469v-2.454H25.334z"/>
			</g>
			<rect x="19.304" y="-127.782" fill="#FFFFFF" width="78.228" height="2.453"/>
		</g>
		<path fill="#FFFFFF" d="M59.906-107.5c0-1.22-0.439-2.284-1.311-3.156c-0.872-0.871-1.93-1.311-3.157-1.311H39.082
			c-0.126,0-0.247,0.048-0.337,0.138c-0.06,0.061-0.138,0.169-0.138,0.337v14.179c0,0.12,0.054,0.241,0.126,0.307
			c0.091,0.098,0.211,0.146,0.343,0.146h16.356c1.221,0,2.286-0.44,3.157-1.306c0.872-0.866,1.311-1.924,1.311-3.151v-0.217
			c0-1.101-0.355-2.068-1.059-2.886c0.704-0.813,1.059-1.787,1.059-2.888v-0.191H59.906z M56.333-106.881
			c0,0.247-0.084,0.451-0.271,0.632c-0.18,0.18-0.385,0.271-0.631,0.271H43.363l-2.128,3.151h14.197
			c0.252,0,0.451,0.083,0.631,0.265c0.181,0.18,0.265,0.378,0.265,0.637v1.022c0,0.259-0.084,0.458-0.265,0.638
			c-0.18,0.182-0.385,0.266-0.637,0.266H42.167v-1.793v-1.029v-3.15v-2.819h13.259c0.252,0,0.451,0.084,0.631,0.265
			c0.181,0.181,0.265,0.372,0.265,0.619v1.027H56.333z"/>
		<path fill="#FFFFFF" d="M83.532-110.662c-0.872-0.865-1.93-1.305-3.15-1.305H68.018c-1.233,0-2.297,0.439-3.163,1.305
			c-0.866,0.866-1.305,1.924-1.305,3.144v10.187c0,0.133,0.054,0.26,0.126,0.325c0.06,0.066,0.168,0.146,0.343,0.146h2.64
			c0.119,0,0.24-0.048,0.312-0.133c0.09-0.091,0.145-0.211,0.145-0.343v-1.696v-2.58v-3.15v-2.64v-0.53
			c0-0.257,0.084-0.462,0.259-0.636c0.18-0.181,0.378-0.259,0.637-0.259h12.363c0.248,0,0.451,0.085,0.632,0.265
			c0.18,0.18,0.265,0.38,0.265,0.637v3.163H68.421l-1.738,3.15h14.582v4.276c0,0.187,0.097,0.3,0.132,0.33
			c0.091,0.092,0.205,0.146,0.325,0.146h2.64c0.187,0,0.3-0.098,0.331-0.133c0.09-0.091,0.144-0.211,0.144-0.343v-10.187
			C84.843-108.738,84.404-109.796,83.532-110.662z"/>
		<g>
			<path fill="#FFFFFF" d="M116.997-111.498c0-0.126-0.049-0.241-0.139-0.336c-0.09-0.085-0.198-0.133-0.319-0.133h-2.64
				c-0.126,0-0.246,0.048-0.337,0.138c-0.09,0.09-0.138,0.205-0.138,0.337v14.179c0,0.126,0.054,0.246,0.126,0.307
				c0.091,0.098,0.211,0.146,0.343,0.146h2.64c0.119,0,0.24-0.048,0.312-0.133c0.09-0.091,0.145-0.205,0.145-0.326v-5.514h0.054
				L116.997-111.498z"/>
			<path fill="#FFFFFF" d="M134.587-111.829L134.587-111.829c-0.091-0.09-0.21-0.132-0.337-0.132h-2.628
				c-0.125,0-0.246,0.049-0.342,0.144c-0.085,0.092-0.126,0.205-0.126,0.331v5.502h-12.568l-1.96,3.162h14.529v5.515
				c0,0.12,0.048,0.235,0.126,0.313c0.084,0.091,0.21,0.145,0.342,0.145h2.628c0.187,0,0.3-0.098,0.331-0.133
				c0.09-0.09,0.144-0.205,0.144-0.325v-14.179C134.725-111.624,134.677-111.739,134.587-111.829z"/>
		</g>
	</g>
</g>
<g>
	<path fill="#14244B" d="M145.472-124.107c-3.581,0-6.5,2.919-6.5,6.5c0,3.58,2.919,6.502,6.5,6.502s6.5-2.922,6.5-6.502
		C151.972-121.188,149.063-124.107,145.472-124.107z M150.512-117.607c0,2.771-2.258,5.029-5.029,5.029
		c-2.769,0-5.027-2.259-5.027-5.029c0-2.782,2.258-5.027,5.027-5.027C148.254-122.635,150.512-120.376,150.512-117.607z"/>
	<g>
		<path fill="#14244B" d="M144.561-116.982v2.893h-1.385v-7.423h2.258c0.513,0,0.935,0.05,1.297,0.162
			c0.363,0.102,0.662,0.25,0.886,0.437c0.236,0.188,0.398,0.412,0.511,0.676c0.112,0.26,0.162,0.548,0.162,0.861
			c0,0.249-0.036,0.485-0.113,0.711c-0.074,0.224-0.173,0.422-0.311,0.611c-0.137,0.186-0.313,0.335-0.512,0.472
			c-0.198,0.138-0.437,0.249-0.697,0.327c0.173,0.098,0.324,0.235,0.447,0.422l1.86,2.744h-1.248c-0.124,0-0.225-0.024-0.299-0.074
			c-0.087-0.05-0.15-0.113-0.211-0.2l-1.561-2.368c-0.06-0.088-0.123-0.151-0.187-0.189c-0.074-0.036-0.173-0.061-0.31-0.061
			H144.561L144.561-116.982z M144.561-117.97h0.861c0.261,0,0.486-0.035,0.686-0.099c0.187-0.063,0.349-0.15,0.473-0.274
			c0.125-0.113,0.213-0.25,0.274-0.411c0.063-0.162,0.088-0.338,0.088-0.525c0-0.373-0.124-0.661-0.374-0.873
			c-0.25-0.199-0.623-0.298-1.136-0.298h-0.887v2.48H144.561z"/>
	</g>
	<g>
		<g>
			<path fill="#14244B" d="M9.568-111.967h-2.64c-0.121,0-0.235,0.048-0.319,0.138c-0.06,0.061-0.138,0.169-0.138,0.337v14.179
				c0,0.12,0.054,0.241,0.126,0.307c0.084,0.098,0.204,0.151,0.331,0.151h2.64c0.187,0,0.3-0.097,0.331-0.134
				c0.09-0.09,0.145-0.204,0.145-0.324v-14.179c0-0.127-0.048-0.24-0.138-0.337C9.808-111.919,9.694-111.967,9.568-111.967z"/>
			<path fill="#14244B" d="M30.513-105.996H18.137c-0.247,0-0.445-0.085-0.625-0.26c-0.181-0.18-0.259-0.378-0.259-0.637v-1.022
				c0-0.257,0.084-0.462,0.259-0.637c0.18-0.18,0.379-0.258,0.625-0.258h15.55c0.084,0,0.205-0.024,0.319-0.139
				c0.09-0.09,0.138-0.204,0.138-0.319v-2.236c0-0.084-0.024-0.205-0.138-0.325c-0.09-0.083-0.198-0.132-0.319-0.132h-15.55
				c-1.221,0-2.28,0.438-3.145,1.305c-0.867,0.866-1.305,1.925-1.305,3.145v0.216c0,1.221,0.438,2.279,1.305,3.151
				c0.865,0.866,1.924,1.306,3.145,1.306h12.375c0.247,0,0.445,0.083,0.619,0.265c0.18,0.18,0.264,0.385,0.264,0.631v1.04
				c0,0.246-0.084,0.446-0.258,0.626c-0.18,0.181-0.378,0.259-0.625,0.259H14.961c-0.12,0-0.228,0.048-0.325,0.138
				c-0.084,0.09-0.132,0.204-0.132,0.331v2.218c0,0.133,0.048,0.253,0.132,0.331c0.091,0.092,0.205,0.146,0.325,0.146h15.551
				c1.221,0,2.285-0.439,3.151-1.312c0.866-0.872,1.305-1.93,1.305-3.151v-0.205c0-1.232-0.439-2.297-1.305-3.162
				C32.792-105.559,31.733-105.996,30.513-105.996z"/>
			<path fill="#14244B" d="M109.312-111.967H92.955c-1.233,0-2.297,0.439-3.163,1.305c-0.866,0.866-1.305,1.931-1.305,3.162v6.176
				c0,1.233,0.439,2.297,1.305,3.164c0.865,0.865,1.93,1.305,3.163,1.305h16.356c0.187,0,0.3-0.097,0.331-0.134
				c0.09-0.09,0.145-0.21,0.145-0.343v-2.218c0-0.085-0.024-0.212-0.138-0.317c-0.091-0.092-0.205-0.139-0.337-0.139H92.955
				c-0.258,0-0.457-0.085-0.638-0.265c-0.18-0.181-0.264-0.387-0.264-0.639v-7.012c0-0.246,0.084-0.449,0.264-0.631
				c0.175-0.18,0.38-0.265,0.638-0.265h16.356c0.126,0,0.246-0.048,0.337-0.138c0.09-0.091,0.138-0.198,0.138-0.318v-2.22
				c0-0.127-0.048-0.24-0.138-0.337C109.552-111.919,109.438-111.967,109.312-111.967z"/>
			<path fill="#14244B" d="M2.358-100.006h-16.356c-0.259,0-0.457-0.085-0.638-0.265c-0.18-0.181-0.265-0.387-0.265-0.639v-1.925
				H1.876c0.132,0,0.252-0.048,0.337-0.139c0.09-0.09,0.139-0.204,0.139-0.336v-2.22c0-0.125-0.048-0.246-0.139-0.336
				c-0.09-0.084-0.205-0.132-0.331-0.132h-16.777v-0.025h-3.566v4.691c0,1.233,0.438,2.297,1.305,3.163
				c0.866,0.865,1.93,1.306,3.163,1.306H2.364c0.187,0,0.3-0.098,0.331-0.133c0.09-0.091,0.145-0.211,0.145-0.343v-2.22
				c0-0.084-0.024-0.21-0.138-0.317C2.604-99.959,2.484-100.006,2.358-100.006z"/>
			<path fill="#14244B" d="M2.688-111.834c-0.09-0.085-0.204-0.133-0.331-0.133h-16.356c-1.233,0-2.297,0.439-3.163,1.305
				c-0.403,0.403-0.715,0.859-0.938,1.364l-0.21,0.477H2.352c0.126,0,0.246-0.049,0.336-0.139c0.09-0.091,0.138-0.199,0.138-0.319
				v-2.219C2.827-111.624,2.778-111.739,2.688-111.834L2.688-111.834z"/>
		</g>
		<g>
			<g>
				<path fill="#14244B" d="M25.334-135.317l18.714-18.173c1.016-0.986,2.64-0.979,3.644,0.019l13.53,13.409
					c0.09,0.084,0.205,0.139,0.331,0.139h9.525c0.415,0,0.625-0.506,0.331-0.8l-7.186-7.187l5.743-5.58
					c1.017-0.986,2.64-0.979,3.644,0.019l13.53,13.409c0.091,0.084,0.205,0.139,0.331,0.139h9.525c0.416,0,0.625-0.506,0.331-0.8
					l-20.295-20.295c-1.299-1.3-3.397-1.3-4.695-0.007L61.71-150.43l-10.596-10.596c-1.299-1.299-3.398-1.299-4.697-0.006
					l-27.583,27.584c-0.216,0.211-0.066,0.584,0.235,0.584h78.469v-2.454H25.334z"/>
			</g>
			<rect x="19.304" y="-127.782" fill="#14244B" width="78.228" height="2.453"/>
		</g>
		<path fill="#14244B" d="M59.906-107.5c0-1.22-0.439-2.284-1.311-3.156c-0.872-0.871-1.93-1.311-3.157-1.311H39.082
			c-0.126,0-0.247,0.048-0.337,0.138c-0.06,0.061-0.138,0.169-0.138,0.337v14.179c0,0.12,0.054,0.241,0.126,0.307
			c0.091,0.098,0.211,0.146,0.343,0.146h16.356c1.221,0,2.286-0.44,3.157-1.306c0.872-0.866,1.311-1.924,1.311-3.151v-0.217
			c0-1.101-0.355-2.068-1.059-2.886c0.704-0.813,1.059-1.787,1.059-2.888v-0.191H59.906z M56.333-106.881
			c0,0.247-0.084,0.451-0.271,0.632c-0.18,0.18-0.385,0.271-0.631,0.271H43.363l-2.128,3.151h14.197
			c0.252,0,0.451,0.083,0.631,0.265c0.181,0.18,0.265,0.378,0.265,0.637v1.022c0,0.259-0.084,0.458-0.265,0.638
			c-0.18,0.182-0.385,0.266-0.637,0.266H42.167v-1.793v-1.029v-3.15v-2.819h13.259c0.252,0,0.451,0.084,0.631,0.265
			c0.181,0.181,0.265,0.372,0.265,0.619v1.027H56.333z"/>
		<path fill="#14244B" d="M83.532-110.662c-0.872-0.865-1.93-1.305-3.15-1.305H68.018c-1.233,0-2.297,0.439-3.163,1.305
			c-0.866,0.866-1.305,1.924-1.305,3.144v10.187c0,0.133,0.054,0.26,0.126,0.325c0.06,0.066,0.168,0.146,0.343,0.146h2.64
			c0.119,0,0.24-0.048,0.312-0.133c0.09-0.091,0.145-0.211,0.145-0.343v-1.696v-2.58v-3.15v-2.64v-0.53
			c0-0.257,0.084-0.462,0.259-0.636c0.18-0.181,0.378-0.259,0.637-0.259h12.363c0.248,0,0.451,0.085,0.632,0.265
			c0.18,0.18,0.265,0.38,0.265,0.637v3.163H68.421l-1.738,3.15h14.582v4.276c0,0.187,0.097,0.3,0.132,0.33
			c0.091,0.092,0.205,0.146,0.325,0.146h2.64c0.187,0,0.3-0.098,0.331-0.133c0.09-0.091,0.144-0.211,0.144-0.343v-10.187
			C84.843-108.738,84.404-109.796,83.532-110.662z"/>
		<g>
			<path fill="#14244B" d="M116.997-111.498c0-0.126-0.049-0.241-0.139-0.336c-0.09-0.085-0.198-0.133-0.319-0.133h-2.64
				c-0.126,0-0.246,0.048-0.337,0.138c-0.09,0.09-0.138,0.205-0.138,0.337v14.179c0,0.126,0.054,0.246,0.126,0.307
				c0.091,0.098,0.211,0.146,0.343,0.146h2.64c0.119,0,0.24-0.048,0.312-0.133c0.09-0.091,0.145-0.205,0.145-0.326v-5.514h0.054
				L116.997-111.498z"/>
			<path fill="#14244B" d="M134.587-111.829L134.587-111.829c-0.091-0.09-0.21-0.132-0.337-0.132h-2.628
				c-0.125,0-0.246,0.049-0.342,0.144c-0.085,0.092-0.126,0.205-0.126,0.331v5.502h-12.568l-1.96,3.162h14.529v5.515
				c0,0.12,0.048,0.235,0.126,0.313c0.084,0.091,0.21,0.145,0.342,0.145h2.628c0.187,0,0.3-0.098,0.331-0.133
				c0.09-0.09,0.144-0.205,0.144-0.325v-14.179C134.725-111.624,134.677-111.739,134.587-111.829z"/>
		</g>
	</g>
</g>
<g display="none">
	<path display="inline" fill="#FFFFFF" d="M145.472-124.107c-3.581,0-6.5,2.919-6.5,6.5c0,3.58,2.919,6.502,6.5,6.502
		s6.5-2.922,6.5-6.502C151.972-121.188,149.063-124.107,145.472-124.107z M150.512-117.607c0,2.771-2.258,5.029-5.029,5.029
		c-2.769,0-5.027-2.259-5.027-5.029c0-2.782,2.258-5.027,5.027-5.027C148.254-122.635,150.512-120.376,150.512-117.607z"/>
	<g display="inline">
		<path fill="#FFFFFF" d="M144.561-116.982v2.893h-1.385v-7.423h2.258c0.513,0,0.935,0.05,1.297,0.162
			c0.363,0.102,0.662,0.25,0.886,0.437c0.236,0.188,0.398,0.412,0.511,0.676c0.112,0.26,0.162,0.548,0.162,0.861
			c0,0.249-0.036,0.485-0.113,0.711c-0.074,0.224-0.173,0.422-0.311,0.611c-0.137,0.186-0.313,0.335-0.512,0.472
			c-0.198,0.138-0.437,0.249-0.697,0.327c0.173,0.098,0.324,0.235,0.447,0.422l1.86,2.744h-1.248c-0.124,0-0.225-0.024-0.299-0.074
			c-0.087-0.05-0.15-0.113-0.211-0.2l-1.561-2.368c-0.06-0.088-0.123-0.151-0.187-0.189c-0.074-0.036-0.173-0.061-0.31-0.061
			H144.561L144.561-116.982z M144.561-117.97h0.861c0.261,0,0.486-0.035,0.686-0.099c0.187-0.063,0.349-0.15,0.473-0.274
			c0.125-0.113,0.213-0.25,0.274-0.411c0.063-0.162,0.088-0.338,0.088-0.525c0-0.373-0.124-0.661-0.374-0.873
			c-0.25-0.199-0.623-0.298-1.136-0.298h-0.887v2.48H144.561z"/>
	</g>
	<g display="inline">
		<g>
			<path fill="#FFFFFF" d="M9.568-111.967h-2.64c-0.121,0-0.235,0.048-0.319,0.138c-0.06,0.061-0.138,0.169-0.138,0.337v14.179
				c0,0.12,0.054,0.241,0.126,0.307c0.084,0.098,0.204,0.151,0.331,0.151h2.64c0.187,0,0.3-0.097,0.331-0.134
				c0.09-0.09,0.145-0.204,0.145-0.324v-14.179c0-0.127-0.048-0.24-0.138-0.337C9.808-111.919,9.694-111.967,9.568-111.967z"/>
			<path fill="#FFFFFF" d="M30.513-105.996H18.137c-0.247,0-0.445-0.085-0.625-0.26c-0.181-0.18-0.259-0.378-0.259-0.637v-1.022
				c0-0.257,0.084-0.462,0.259-0.637c0.18-0.18,0.379-0.258,0.625-0.258h15.55c0.084,0,0.205-0.024,0.319-0.139
				c0.09-0.09,0.138-0.204,0.138-0.319v-2.236c0-0.084-0.024-0.205-0.138-0.325c-0.09-0.083-0.198-0.132-0.319-0.132h-15.55
				c-1.221,0-2.28,0.438-3.145,1.305c-0.867,0.866-1.305,1.925-1.305,3.145v0.216c0,1.221,0.438,2.279,1.305,3.151
				c0.865,0.866,1.924,1.306,3.145,1.306h12.375c0.247,0,0.445,0.083,0.619,0.265c0.18,0.18,0.264,0.385,0.264,0.631v1.04
				c0,0.246-0.084,0.446-0.258,0.626c-0.18,0.181-0.378,0.259-0.625,0.259H14.961c-0.12,0-0.228,0.048-0.325,0.138
				c-0.084,0.09-0.132,0.204-0.132,0.331v2.218c0,0.133,0.048,0.253,0.132,0.331c0.091,0.092,0.205,0.146,0.325,0.146h15.551
				c1.221,0,2.285-0.439,3.151-1.312c0.866-0.872,1.305-1.93,1.305-3.151v-0.205c0-1.232-0.439-2.297-1.305-3.162
				C32.792-105.559,31.733-105.996,30.513-105.996z"/>
			<path fill="#FFFFFF" d="M109.312-111.967H92.955c-1.233,0-2.297,0.439-3.163,1.305c-0.866,0.866-1.305,1.931-1.305,3.162v6.176
				c0,1.233,0.439,2.297,1.305,3.164c0.865,0.865,1.93,1.305,3.163,1.305h16.356c0.187,0,0.3-0.097,0.331-0.134
				c0.09-0.09,0.145-0.21,0.145-0.343v-2.218c0-0.085-0.024-0.212-0.138-0.317c-0.091-0.092-0.205-0.139-0.337-0.139H92.955
				c-0.258,0-0.457-0.085-0.638-0.265c-0.18-0.181-0.264-0.387-0.264-0.639v-7.012c0-0.246,0.084-0.449,0.264-0.631
				c0.175-0.18,0.38-0.265,0.638-0.265h16.356c0.126,0,0.246-0.048,0.337-0.138c0.09-0.091,0.138-0.198,0.138-0.318v-2.22
				c0-0.127-0.048-0.24-0.138-0.337C109.552-111.919,109.438-111.967,109.312-111.967z"/>
			<path fill="#FFFFFF" d="M2.358-100.006h-16.356c-0.259,0-0.457-0.085-0.638-0.265c-0.18-0.181-0.265-0.387-0.265-0.639v-1.925
				H1.876c0.132,0,0.252-0.048,0.337-0.139c0.09-0.09,0.139-0.204,0.139-0.336v-2.22c0-0.125-0.048-0.246-0.139-0.336
				c-0.09-0.084-0.205-0.132-0.331-0.132h-16.777v-0.025h-3.566v4.691c0,1.233,0.438,2.297,1.305,3.163
				c0.866,0.865,1.93,1.306,3.163,1.306H2.364c0.187,0,0.3-0.098,0.331-0.133c0.09-0.091,0.145-0.211,0.145-0.343v-2.22
				c0-0.084-0.024-0.21-0.138-0.317C2.604-99.959,2.484-100.006,2.358-100.006z"/>
			<path fill="#FFFFFF" d="M2.688-111.834c-0.09-0.085-0.204-0.133-0.331-0.133h-16.356c-1.233,0-2.297,0.439-3.163,1.305
				c-0.403,0.403-0.715,0.859-0.938,1.364l-0.21,0.477H2.352c0.126,0,0.246-0.049,0.336-0.139c0.09-0.091,0.138-0.199,0.138-0.319
				v-2.219C2.827-111.624,2.778-111.739,2.688-111.834L2.688-111.834z"/>
		</g>
		<g>
			<g>
				<path fill="#FFFFFF" d="M25.334-135.317l18.714-18.172c1.016-0.987,2.64-0.98,3.644,0.018l13.53,13.41
					c0.09,0.084,0.205,0.138,0.331,0.138h9.525c0.415,0,0.625-0.505,0.331-0.8l-7.186-7.186l5.743-5.58
					c1.017-0.987,2.64-0.98,3.644,0.018l13.53,13.41c0.091,0.084,0.205,0.138,0.331,0.138h9.525c0.416,0,0.625-0.505,0.331-0.8
					l-20.295-20.295c-1.299-1.299-3.397-1.299-4.695-0.006L61.71-150.429l-10.596-10.596c-1.299-1.299-3.398-1.299-4.697-0.006
					l-27.583,27.583c-0.216,0.21-0.066,0.583,0.235,0.583h78.469v-2.454H25.334z"/>
			</g>
			<rect x="19.304" y="-127.782" fill="#FFFFFF" width="78.228" height="2.453"/>
		</g>
		<path fill="#FFFFFF" d="M59.906-107.5c0-1.22-0.439-2.284-1.311-3.156c-0.872-0.871-1.93-1.311-3.157-1.311H39.082
			c-0.126,0-0.247,0.048-0.337,0.138c-0.06,0.061-0.138,0.169-0.138,0.337v14.179c0,0.12,0.054,0.241,0.126,0.307
			c0.091,0.098,0.211,0.146,0.343,0.146h16.356c1.221,0,2.286-0.44,3.157-1.306c0.872-0.866,1.311-1.924,1.311-3.151v-0.217
			c0-1.101-0.355-2.068-1.059-2.886c0.704-0.813,1.059-1.787,1.059-2.888v-0.191H59.906z M56.333-106.881
			c0,0.247-0.084,0.451-0.271,0.632c-0.18,0.18-0.385,0.271-0.631,0.271H43.363l-2.128,3.151h14.197
			c0.252,0,0.451,0.083,0.631,0.265c0.181,0.18,0.265,0.378,0.265,0.637v1.022c0,0.259-0.084,0.458-0.265,0.638
			c-0.18,0.182-0.385,0.266-0.637,0.266H42.167v-1.793v-1.029v-3.15v-2.819h13.259c0.252,0,0.451,0.084,0.631,0.265
			c0.181,0.181,0.265,0.372,0.265,0.619v1.027H56.333z"/>
		<path fill="#FFFFFF" d="M83.532-110.662c-0.872-0.865-1.93-1.305-3.15-1.305H68.018c-1.233,0-2.297,0.439-3.163,1.305
			c-0.866,0.866-1.305,1.924-1.305,3.144v10.187c0,0.133,0.054,0.26,0.126,0.325c0.06,0.066,0.168,0.146,0.343,0.146h2.64
			c0.119,0,0.24-0.048,0.312-0.133c0.09-0.091,0.145-0.211,0.145-0.343v-1.696v-2.58v-3.15v-2.64v-0.53
			c0-0.257,0.084-0.462,0.259-0.636c0.18-0.181,0.378-0.259,0.637-0.259h12.363c0.248,0,0.451,0.085,0.632,0.265
			c0.18,0.18,0.265,0.38,0.265,0.637v3.163H68.421l-1.738,3.15h14.582v4.276c0,0.187,0.097,0.3,0.132,0.33
			c0.091,0.092,0.205,0.146,0.325,0.146h2.64c0.187,0,0.3-0.098,0.331-0.133c0.09-0.091,0.144-0.211,0.144-0.343v-10.187
			C84.843-108.738,84.404-109.796,83.532-110.662z"/>
		<g>
			<path fill="#FFFFFF" d="M116.997-111.498c0-0.126-0.049-0.241-0.139-0.336c-0.09-0.085-0.198-0.133-0.319-0.133h-2.64
				c-0.126,0-0.246,0.048-0.337,0.138c-0.09,0.09-0.138,0.205-0.138,0.337v14.179c0,0.126,0.054,0.246,0.126,0.307
				c0.091,0.098,0.211,0.146,0.343,0.146h2.64c0.119,0,0.24-0.048,0.312-0.133c0.09-0.091,0.145-0.205,0.145-0.326v-5.514h0.054
				L116.997-111.498z"/>
			<path fill="#FFFFFF" d="M134.587-111.829L134.587-111.829c-0.091-0.09-0.21-0.132-0.337-0.132h-2.628
				c-0.125,0-0.246,0.049-0.342,0.144c-0.085,0.092-0.126,0.205-0.126,0.331v5.502h-12.568l-1.96,3.162h14.529v5.515
				c0,0.12,0.048,0.235,0.126,0.313c0.084,0.091,0.21,0.145,0.342,0.145h2.628c0.187,0,0.3-0.098,0.331-0.133
				c0.09-0.09,0.144-0.205,0.144-0.325v-14.179C134.725-111.624,134.677-111.739,134.587-111.829z"/>
		</g>
	</g>
</g>
<rect x="-20.414" y="-6.463" display="none" fill="#30469D" width="182" height="78.75"/>
<g display="none">
	<path display="inline" fill="#14244B" d="M119,27.999c-3.305,0-6,2.694-6,6c0,3.305,2.695,6.002,6,6.002s6-2.697,6-6.002
		C125,30.693,122.315,27.999,119,27.999z M123.652,33.999c0,2.558-2.084,4.643-4.642,4.643c-2.555,0-4.64-2.085-4.64-4.643
		c0-2.568,2.085-4.641,4.64-4.641C121.568,29.358,123.652,31.443,123.652,33.999z"/>
	<g display="inline">
		<path fill="#14244B" d="M118.158,34.576v2.67h-1.277v-6.847h2.084c0.473,0,0.866,0.041,1.197,0.145
			c0.337,0.094,0.609,0.23,0.819,0.4c0.218,0.182,0.368,0.383,0.47,0.627c0.105,0.239,0.151,0.505,0.151,0.797
			c0,0.228-0.034,0.445-0.104,0.656c-0.07,0.204-0.16,0.387-0.284,0.563c-0.129,0.17-0.291,0.309-0.478,0.435
			c-0.179,0.128-0.401,0.228-0.642,0.298c0.16,0.094,0.299,0.222,0.413,0.394l1.717,2.533h-1.151c-0.115,0-0.208-0.022-0.278-0.068
			c-0.082-0.046-0.138-0.104-0.194-0.187l-1.441-2.185c-0.056-0.081-0.114-0.14-0.172-0.175c-0.068-0.033-0.162-0.056-0.286-0.056
			H118.158L118.158,34.576z M118.158,33.663h0.796c0.244,0,0.449-0.029,0.633-0.094c0.173-0.053,0.322-0.135,0.434-0.249
			c0.117-0.104,0.199-0.226,0.256-0.384c0.058-0.146,0.081-0.308,0.081-0.48c0-0.345-0.114-0.61-0.345-0.809
			c-0.229-0.182-0.575-0.272-1.048-0.272h-0.819v2.288H118.158z"/>
	</g>
	<g display="inline">
		<g>
			<path fill="#14244B" d="M22.444,36.423h-1.879c-0.085,0-0.167,0.034-0.227,0.098c-0.043,0.044-0.099,0.12-0.099,0.239v10.09
				c0,0.084,0.04,0.172,0.091,0.219c0.06,0.068,0.145,0.107,0.235,0.107h1.879c0.132,0,0.213-0.069,0.235-0.096
				c0.064-0.064,0.103-0.146,0.103-0.23V36.76c0-0.09-0.035-0.171-0.099-0.239C22.615,36.457,22.533,36.423,22.444,36.423z"/>
			<path fill="#14244B" d="M37.348,40.671h-8.806c-0.175,0-0.317-0.06-0.445-0.185c-0.132-0.128-0.185-0.27-0.185-0.453v-0.729
				c0-0.182,0.061-0.327,0.185-0.45c0.128-0.13,0.27-0.187,0.445-0.187h11.065c0.06,0,0.146-0.016,0.226-0.097
				c0.065-0.065,0.099-0.145,0.099-0.228v-1.592c0-0.06-0.017-0.147-0.099-0.231c-0.063-0.06-0.14-0.094-0.226-0.094H28.542
				c-0.869,0-1.622,0.313-2.238,0.936c-0.617,0.609-0.928,1.362-0.928,2.235v0.148c0,0.869,0.312,1.622,0.928,2.242
				c0.616,0.617,1.37,0.93,2.238,0.93h8.806c0.175,0,0.316,0.059,0.44,0.192c0.127,0.124,0.188,0.269,0.188,0.444v0.74
				c0,0.174-0.061,0.317-0.184,0.444c-0.129,0.13-0.27,0.187-0.445,0.187H26.282c-0.086,0-0.162,0.032-0.233,0.1
				c-0.059,0.062-0.092,0.143-0.092,0.232v1.58c0,0.092,0.033,0.178,0.092,0.233c0.067,0.065,0.146,0.104,0.233,0.104h11.066
				c0.869,0,1.625-0.313,2.242-0.934c0.615-0.621,0.928-1.373,0.928-2.243v-0.145c0-0.878-0.313-1.636-0.928-2.251
				C38.969,40.984,38.216,40.671,37.348,40.671z"/>
			<path fill="#14244B" d="M93.417,36.423H81.779c-0.878,0-1.635,0.313-2.251,0.928c-0.616,0.616-0.929,1.374-0.929,2.251v4.394
				c0,0.878,0.313,1.635,0.929,2.251c0.616,0.616,1.373,0.93,2.251,0.93h11.638c0.133,0,0.213-0.069,0.236-0.096
				c0.063-0.064,0.103-0.15,0.103-0.242v-1.58c0-0.061-0.018-0.151-0.098-0.225c-0.065-0.066-0.146-0.101-0.24-0.101H81.779
				c-0.184,0-0.323-0.06-0.454-0.187c-0.128-0.128-0.188-0.277-0.188-0.455V39.3c0-0.174,0.061-0.317,0.188-0.445
				c0.124-0.13,0.27-0.19,0.454-0.19h11.638c0.089,0,0.175-0.034,0.24-0.098c0.063-0.064,0.098-0.14,0.098-0.227v-1.58
				c0-0.09-0.035-0.171-0.098-0.239C93.591,36.457,93.507,36.423,93.417,36.423z"/>
			<path fill="#14244B" d="M17.313,44.933H5.675c-0.184,0-0.324-0.06-0.454-0.187c-0.128-0.128-0.188-0.277-0.188-0.455v-1.37
				h11.938c0.094,0,0.179-0.034,0.239-0.1c0.065-0.063,0.098-0.146,0.098-0.237v-1.58c0-0.089-0.033-0.176-0.098-0.235
				c-0.064-0.064-0.145-0.098-0.235-0.098H5.038v-0.018H2.5v3.338c0,0.878,0.312,1.634,0.928,2.251
				c0.616,0.615,1.373,0.929,2.251,0.929h11.638c0.133,0,0.214-0.069,0.236-0.094c0.064-0.065,0.103-0.151,0.103-0.241v-1.583
				c0-0.06-0.017-0.15-0.098-0.225C17.489,44.967,17.404,44.933,17.313,44.933z"/>
			<path fill="#14244B" d="M17.548,36.517c-0.064-0.06-0.145-0.094-0.235-0.094H5.675c-0.877,0-1.635,0.313-2.25,0.928
				c-0.287,0.287-0.509,0.612-0.667,0.972l-0.15,0.338h14.702c0.09,0,0.176-0.034,0.24-0.099c0.065-0.063,0.099-0.135,0.099-0.227
				v-1.579C17.647,36.666,17.613,36.584,17.548,36.517L17.548,36.517z"/>
		</g>
		<g>
			<g>
				<path fill="#14244B" d="M33.664,19.808L46.979,6.876c0.723-0.701,1.878-0.696,2.592,0.013L59.2,16.43
					c0.064,0.061,0.146,0.1,0.235,0.1h6.777c0.296,0,0.445-0.36,0.233-0.571l-5.111-5.111l4.086-3.971
					c0.724-0.701,1.876-0.696,2.593,0.013l9.627,9.541c0.064,0.061,0.146,0.1,0.235,0.1h6.779c0.294,0,0.444-0.36,0.234-0.571
					L70.448,1.52c-0.924-0.925-2.417-0.925-3.341-0.006l-7.561,7.54l-7.539-7.54c-0.925-0.924-2.418-0.924-3.342-0.003
					L29.037,21.139c-0.154,0.15-0.046,0.415,0.167,0.415H85.04v-1.746H33.664z"/>
			</g>
			<rect x="29.372" y="25.168" fill="#14244B" width="55.663" height="1.746"/>
		</g>
		<path fill="#14244B" d="M58.263,39.602c0-0.869-0.313-1.626-0.933-2.239c-0.621-0.627-1.374-0.939-2.247-0.939H43.445
			c-0.09,0-0.176,0.034-0.24,0.098c-0.043,0.044-0.099,0.12-0.099,0.239v10.09c0,0.084,0.039,0.172,0.09,0.219
			c0.064,0.068,0.149,0.103,0.244,0.103h11.638c0.868,0,1.626-0.313,2.247-0.929c0.62-0.617,0.932-1.369,0.932-2.243v-0.154
			c0-0.783-0.252-1.471-0.754-2.053c0.502-0.578,0.754-1.271,0.754-2.055v-0.136H58.263z M55.72,40.041
			c0,0.176-0.06,0.321-0.192,0.45c-0.128,0.128-0.274,0.192-0.45,0.192h-8.587l-1.515,2.241h10.103c0.18,0,0.322,0.061,0.45,0.19
			c0.128,0.128,0.188,0.268,0.188,0.452v0.728c0,0.185-0.06,0.326-0.188,0.454c-0.128,0.129-0.274,0.188-0.454,0.188H45.64v-1.274
			v-0.734v-2.242v-2.006h9.435c0.18,0,0.322,0.065,0.45,0.189c0.128,0.129,0.188,0.265,0.188,0.439v0.731H55.72z"/>
		<path fill="#14244B" d="M75.074,37.351c-0.621-0.615-1.374-0.928-2.24-0.928h-8.799c-0.877,0-1.635,0.313-2.25,0.928
			c-0.617,0.616-0.929,1.368-0.929,2.237v7.25c0,0.092,0.039,0.184,0.09,0.23c0.043,0.046,0.12,0.103,0.244,0.103h1.879
			c0.085,0,0.17-0.034,0.222-0.094c0.064-0.065,0.103-0.151,0.103-0.241v-1.211V43.79v-2.242V39.67v-0.378
			c0-0.182,0.06-0.327,0.185-0.452c0.128-0.129,0.27-0.185,0.454-0.185h8.796c0.177,0,0.321,0.061,0.45,0.189
			c0.128,0.128,0.188,0.27,0.188,0.452v2.251h-9.144l-1.237,2.242H73.46v3.046c0,0.129,0.069,0.212,0.094,0.232
			c0.065,0.063,0.146,0.103,0.231,0.103h1.879c0.132,0,0.213-0.069,0.235-0.094c0.063-0.065,0.102-0.151,0.102-0.241v-7.252
			C76.006,38.719,75.694,37.967,75.074,37.351z"/>
		<g>
			<path fill="#14244B" d="M98.886,36.756c0-0.09-0.035-0.172-0.098-0.239c-0.064-0.06-0.139-0.094-0.227-0.094h-1.878
				c-0.09,0-0.176,0.034-0.241,0.098c-0.063,0.063-0.098,0.146-0.098,0.239v10.09c0,0.093,0.039,0.175,0.089,0.219
				c0.065,0.068,0.152,0.103,0.245,0.103h1.879c0.084,0,0.17-0.034,0.222-0.094c0.064-0.065,0.103-0.147,0.103-0.232v-3.924h0.04
				L98.886,36.756z"/>
			<path fill="#14244B" d="M111.402,36.521L111.402,36.521c-0.064-0.063-0.149-0.094-0.239-0.094h-1.87
				c-0.09,0-0.176,0.034-0.244,0.102c-0.061,0.065-0.09,0.146-0.09,0.236v3.914h-8.943l-1.395,2.25h10.338v3.925
				c0,0.089,0.035,0.168,0.09,0.224c0.06,0.064,0.149,0.103,0.244,0.103h1.87c0.132,0,0.214-0.07,0.235-0.095
				c0.064-0.063,0.103-0.143,0.103-0.231V36.765C111.5,36.666,111.466,36.584,111.402,36.521z"/>
		</g>
	</g>
</g>
<g>
	<path fill="#FFFFFF" d="M119,27.999c-3.305,0-6,2.694-6,6c0,3.305,2.695,6.002,6,6.002s6-2.697,6-6.002
		C125,30.693,122.315,27.999,119,27.999z M123.652,33.999c0,2.558-2.084,4.643-4.642,4.643c-2.555,0-4.64-2.085-4.64-4.643
		c0-2.568,2.085-4.641,4.64-4.641C121.568,29.358,123.652,31.443,123.652,33.999z"/>
	<g>
		<path fill="#FFFFFF" d="M118.158,34.576v2.67h-1.277v-6.847h2.084c0.473,0,0.866,0.041,1.197,0.145
			c0.337,0.094,0.609,0.23,0.819,0.4c0.218,0.182,0.368,0.383,0.47,0.627c0.105,0.239,0.151,0.505,0.151,0.797
			c0,0.228-0.034,0.445-0.104,0.656c-0.07,0.204-0.16,0.387-0.284,0.563c-0.129,0.17-0.291,0.309-0.478,0.435
			c-0.179,0.128-0.401,0.228-0.642,0.298c0.16,0.094,0.299,0.222,0.413,0.394l1.717,2.533h-1.151c-0.115,0-0.208-0.022-0.278-0.068
			c-0.082-0.046-0.138-0.104-0.194-0.187l-1.441-2.185c-0.056-0.081-0.114-0.14-0.172-0.175c-0.068-0.033-0.162-0.056-0.286-0.056
			H118.158L118.158,34.576z M118.158,33.663h0.796c0.244,0,0.449-0.029,0.633-0.094c0.173-0.053,0.322-0.135,0.434-0.249
			c0.117-0.104,0.199-0.226,0.256-0.384c0.058-0.146,0.081-0.308,0.081-0.48c0-0.345-0.114-0.61-0.345-0.809
			c-0.229-0.182-0.575-0.272-1.048-0.272h-0.819v2.288H118.158z"/>
	</g>
	<g>
		<g>
			<path fill="#FFFFFF" d="M22.444,36.423h-1.879c-0.085,0-0.167,0.034-0.227,0.098c-0.043,0.044-0.099,0.12-0.099,0.239v10.09
				c0,0.084,0.04,0.172,0.091,0.219c0.06,0.068,0.145,0.107,0.235,0.107h1.879c0.132,0,0.213-0.069,0.235-0.096
				c0.064-0.064,0.103-0.146,0.103-0.23V36.76c0-0.09-0.035-0.171-0.099-0.239C22.615,36.457,22.533,36.423,22.444,36.423z"/>
			<path fill="#FFFFFF" d="M37.348,40.671h-8.806c-0.175,0-0.317-0.06-0.445-0.185c-0.132-0.128-0.185-0.27-0.185-0.453v-0.729
				c0-0.182,0.061-0.327,0.185-0.45c0.128-0.13,0.27-0.187,0.445-0.187h11.065c0.06,0,0.146-0.016,0.226-0.097
				c0.065-0.065,0.099-0.145,0.099-0.228v-1.592c0-0.06-0.017-0.147-0.099-0.231c-0.063-0.06-0.14-0.094-0.226-0.094H28.542
				c-0.869,0-1.622,0.313-2.238,0.936c-0.617,0.609-0.928,1.362-0.928,2.235v0.148c0,0.869,0.312,1.622,0.928,2.242
				c0.616,0.617,1.37,0.93,2.238,0.93h8.806c0.175,0,0.316,0.059,0.44,0.192c0.127,0.124,0.188,0.269,0.188,0.444v0.74
				c0,0.174-0.061,0.317-0.184,0.444c-0.129,0.13-0.27,0.187-0.445,0.187H26.282c-0.086,0-0.162,0.032-0.233,0.1
				c-0.059,0.062-0.092,0.143-0.092,0.232v1.58c0,0.092,0.033,0.178,0.092,0.233c0.067,0.065,0.146,0.104,0.233,0.104h11.066
				c0.869,0,1.625-0.313,2.242-0.934c0.615-0.621,0.928-1.373,0.928-2.243v-0.145c0-0.878-0.313-1.636-0.928-2.251
				C38.969,40.984,38.216,40.671,37.348,40.671z"/>
			<path fill="#FFFFFF" d="M93.417,36.423H81.779c-0.878,0-1.635,0.313-2.251,0.928c-0.616,0.616-0.929,1.374-0.929,2.251v4.394
				c0,0.878,0.313,1.635,0.929,2.251c0.616,0.616,1.373,0.93,2.251,0.93h11.638c0.133,0,0.213-0.069,0.236-0.096
				c0.063-0.064,0.103-0.15,0.103-0.242v-1.58c0-0.061-0.018-0.151-0.098-0.225c-0.065-0.066-0.146-0.101-0.24-0.101H81.779
				c-0.184,0-0.323-0.06-0.454-0.187c-0.128-0.128-0.188-0.277-0.188-0.455V39.3c0-0.174,0.061-0.317,0.188-0.445
				c0.124-0.13,0.27-0.19,0.454-0.19h11.638c0.089,0,0.175-0.034,0.24-0.098c0.063-0.064,0.098-0.14,0.098-0.227v-1.58
				c0-0.09-0.035-0.171-0.098-0.239C93.591,36.457,93.507,36.423,93.417,36.423z"/>
			<path fill="#FFFFFF" d="M17.313,44.933H5.675c-0.184,0-0.324-0.06-0.454-0.187c-0.128-0.128-0.188-0.277-0.188-0.455v-1.37
				h11.938c0.094,0,0.179-0.034,0.239-0.1c0.065-0.063,0.098-0.146,0.098-0.237v-1.58c0-0.089-0.033-0.176-0.098-0.235
				c-0.064-0.064-0.145-0.098-0.235-0.098H5.038v-0.018H2.5v3.338c0,0.878,0.312,1.634,0.928,2.251
				c0.616,0.615,1.373,0.929,2.251,0.929h11.638c0.133,0,0.214-0.069,0.236-0.094c0.064-0.065,0.103-0.151,0.103-0.241v-1.583
				c0-0.06-0.017-0.15-0.098-0.225C17.489,44.967,17.404,44.933,17.313,44.933z"/>
			<path fill="#FFFFFF" d="M17.548,36.517c-0.064-0.06-0.145-0.094-0.235-0.094H5.675c-0.877,0-1.635,0.313-2.25,0.928
				c-0.287,0.287-0.509,0.612-0.667,0.972l-0.15,0.338h14.702c0.09,0,0.176-0.034,0.24-0.099c0.065-0.063,0.099-0.135,0.099-0.227
				v-1.579C17.647,36.666,17.613,36.584,17.548,36.517L17.548,36.517z"/>
		</g>
		<g>
			<g>
				<path fill="#FFFFFF" d="M33.664,19.808L46.979,6.876c0.723-0.701,1.878-0.696,2.592,0.013L59.2,16.43
					c0.064,0.061,0.146,0.1,0.235,0.1h6.777c0.296,0,0.445-0.36,0.233-0.571l-5.111-5.111l4.086-3.971
					c0.724-0.701,1.876-0.696,2.593,0.013l9.627,9.541c0.064,0.061,0.146,0.1,0.235,0.1h6.779c0.294,0,0.444-0.36,0.234-0.571
					L70.448,1.52c-0.924-0.925-2.417-0.925-3.341-0.006l-7.561,7.54l-7.539-7.54c-0.925-0.924-2.418-0.924-3.342-0.003
					L29.037,21.139c-0.154,0.15-0.046,0.415,0.167,0.415H85.04v-1.746H33.664z"/>
			</g>
			<rect x="29.372" y="25.168" fill="#FFFFFF" width="55.663" height="1.746"/>
		</g>
		<path fill="#FFFFFF" d="M58.263,39.602c0-0.869-0.313-1.626-0.933-2.239c-0.621-0.627-1.374-0.939-2.247-0.939H43.445
			c-0.09,0-0.176,0.034-0.24,0.098c-0.043,0.044-0.099,0.12-0.099,0.239v10.09c0,0.084,0.039,0.172,0.09,0.219
			c0.064,0.068,0.149,0.103,0.244,0.103h11.638c0.868,0,1.626-0.313,2.247-0.929c0.62-0.617,0.932-1.369,0.932-2.243v-0.154
			c0-0.783-0.252-1.471-0.754-2.053c0.502-0.578,0.754-1.271,0.754-2.055v-0.136H58.263z M55.72,40.041
			c0,0.176-0.06,0.321-0.192,0.45c-0.128,0.128-0.274,0.192-0.45,0.192h-8.587l-1.515,2.241h10.103c0.18,0,0.322,0.061,0.45,0.19
			c0.128,0.128,0.188,0.268,0.188,0.452v0.728c0,0.185-0.06,0.326-0.188,0.454c-0.128,0.129-0.274,0.188-0.454,0.188H45.64v-1.274
			v-0.734v-2.242v-2.006h9.435c0.18,0,0.322,0.065,0.45,0.189c0.128,0.129,0.188,0.265,0.188,0.439v0.731H55.72z"/>
		<path fill="#FFFFFF" d="M75.074,37.351c-0.621-0.615-1.374-0.928-2.24-0.928h-8.799c-0.877,0-1.635,0.313-2.25,0.928
			c-0.617,0.616-0.929,1.368-0.929,2.237v7.25c0,0.092,0.039,0.184,0.09,0.23c0.043,0.046,0.12,0.103,0.244,0.103h1.879
			c0.085,0,0.17-0.034,0.222-0.094c0.064-0.065,0.103-0.151,0.103-0.241v-1.211V43.79v-2.242V39.67v-0.378
			c0-0.182,0.06-0.327,0.185-0.452c0.128-0.129,0.27-0.185,0.454-0.185h8.796c0.177,0,0.321,0.061,0.45,0.189
			c0.128,0.128,0.188,0.27,0.188,0.452v2.251h-9.144l-1.237,2.242H73.46v3.046c0,0.129,0.069,0.212,0.094,0.232
			c0.065,0.063,0.146,0.103,0.231,0.103h1.879c0.132,0,0.213-0.069,0.235-0.094c0.063-0.065,0.102-0.151,0.102-0.241v-7.252
			C76.006,38.719,75.694,37.967,75.074,37.351z"/>
		<g>
			<path fill="#FFFFFF" d="M98.886,36.756c0-0.09-0.035-0.172-0.098-0.239c-0.064-0.06-0.139-0.094-0.227-0.094h-1.878
				c-0.09,0-0.176,0.034-0.241,0.098c-0.063,0.063-0.098,0.146-0.098,0.239v10.09c0,0.093,0.039,0.175,0.089,0.219
				c0.065,0.068,0.152,0.103,0.245,0.103h1.879c0.084,0,0.17-0.034,0.222-0.094c0.064-0.065,0.103-0.147,0.103-0.232v-3.924h0.04
				L98.886,36.756z"/>
			<path fill="#FFFFFF" d="M111.402,36.521L111.402,36.521c-0.064-0.063-0.149-0.094-0.239-0.094h-1.87
				c-0.09,0-0.176,0.034-0.244,0.102c-0.061,0.065-0.09,0.146-0.09,0.236v3.914h-8.943l-1.395,2.25h10.338v3.925
				c0,0.089,0.035,0.168,0.09,0.224c0.06,0.064,0.149,0.103,0.244,0.103h1.87c0.132,0,0.214-0.07,0.235-0.095
				c0.064-0.063,0.103-0.143,0.103-0.231V36.765C111.5,36.666,111.466,36.584,111.402,36.521z"/>
		</g>
	</g>
</g>
<image display="none" overflow="visible" width="773" height="157" xlink:href="Screenshot from 2022-11-23 11-32-11.png"  transform="matrix(1 0 0 1 -109.8579 48.3828)">
</image>
</svg>
