<svg width="17" height="17" viewBox="0 0 17 17" fill="none" xmlns="http://www.w3.org/2000/svg">
<path d="M5.12476 0.939209C4.90601 0.345459 4.24976 0.064209 3.65601 0.220459L0.906006 0.970459C0.374756 1.12671 -0.000244141 1.59546 -0.000244141 2.15796C-0.000244141 9.90796 6.24976 16.158 13.9998 16.158C14.5623 16.158 15.031 15.783 15.1873 15.2517L15.9373 12.5017C16.0935 11.908 15.8123 11.2517 15.2185 11.033L12.2185 9.78296C11.7185 9.56421 11.1248 9.68921 10.781 10.1267L9.49976 11.658C7.31226 10.6267 5.53101 8.84546 4.49976 6.65796L6.03101 5.37671C6.46851 5.03296 6.59351 4.43921 6.37476 3.93921L5.12476 0.939209Z" fill="white"/>
</svg>
