<svg width="17" height="18" viewBox="0 0 17 18" fill="none" xmlns="http://www.w3.org/2000/svg">
<path d="M16.7261 9.125C16.7261 13.6738 13.0405 17.3594 8.4917 17.3594C7.62842 17.3594 6.79834 17.2598 6.03467 16.9941C6.3667 16.4629 6.86475 15.5664 7.06396 14.8359C7.16357 14.4707 7.56201 12.877 7.56201 12.877C7.82764 13.4082 8.62451 13.8398 9.45459 13.8398C11.9448 13.8398 13.7378 11.5488 13.7378 8.72656C13.7378 6.00391 11.5132 3.94531 8.65771 3.94531C5.10498 3.94531 3.2124 6.33594 3.2124 8.92578C3.2124 10.1543 3.84326 11.6484 4.87256 12.1465C5.03857 12.2129 5.13818 12.1797 5.17139 12.0137C5.17139 11.9141 5.3374 11.3496 5.40381 11.084C5.40381 11.0176 5.40381 10.918 5.3374 10.8516C5.00537 10.4531 4.73975 9.68945 4.73975 8.95898C4.73975 7.16602 6.10107 5.40625 8.4585 5.40625C10.4507 5.40625 11.8784 6.76758 11.8784 8.75977C11.8784 10.9844 10.7495 12.5117 9.28857 12.5117C8.4917 12.5117 7.89404 11.8477 8.06006 11.0508C8.29248 10.0547 8.75732 8.99219 8.75732 8.29492C8.75732 7.66406 8.42529 7.13281 7.72803 7.13281C6.89795 7.13281 6.23389 7.99609 6.23389 9.125C6.23389 9.85547 6.46631 10.3535 6.46631 10.3535C6.46631 10.3535 5.66943 13.8066 5.50342 14.4375C5.3374 15.168 5.40381 16.1641 5.47021 16.7949C2.41553 15.5996 0.257324 12.6445 0.257324 9.125C0.257324 4.57617 3.94287 0.890625 8.4917 0.890625C13.0405 0.890625 16.7261 4.57617 16.7261 9.125Z" fill="#4B4B4B"/>
</svg>
