<svg width="17" height="17" viewBox="0 0 17 17" fill="none" xmlns="http://www.w3.org/2000/svg">
<path d="M12.9998 6.65796C12.9998 8.09546 12.531 9.43921 11.7498 10.5017L15.6873 14.4705C16.0935 14.8455 16.0935 15.5017 15.6873 15.8767C15.3123 16.283 14.656 16.283 14.281 15.8767L10.3123 11.908C9.24976 12.7205 7.90601 13.158 6.49976 13.158C2.90601 13.158 -0.000244141 10.2517 -0.000244141 6.65796C-0.000244141 3.09546 2.90601 0.157959 6.49976 0.157959C10.0623 0.157959 12.9998 3.09546 12.9998 6.65796ZM6.49976 11.158C8.96851 11.158 10.9998 9.15796 10.9998 6.65796C10.9998 4.18921 8.96851 2.15796 6.49976 2.15796C3.99976 2.15796 1.99976 4.18921 1.99976 6.65796C1.99976 9.15796 3.99976 11.158 6.49976 11.158Z" fill="white"/>
</svg>
