<?xml version="1.0" standalone="no"?>
<!DOCTYPE svg PUBLIC "-//W3C//DTD SVG 20010904//EN"
 "http://www.w3.org/TR/2001/REC-SVG-20010904/DTD/svg10.dtd">
<svg version="1.0" xmlns="http://www.w3.org/2000/svg"
 width="290.000000pt" height="290.000000pt" viewBox="0 0 290.000000 290.000000"
 preserveAspectRatio="xMidYMid meet">
<metadata>
Created by potrace 1.14, written by Peter Selinger 2001-2017
</metadata>
<g transform="translate(0.000000,290.000000) scale(0.100000,-0.100000)"
fill="#000000" stroke="none">
<path d="M988 2063 c-186 -180 -938 -937 -938 -945 0 -4 628 -8 1395 -8 l1395
0 0 45 0 45 -1275 0 c-701 0 -1275 2 -1275 5 0 4 81 83 517 508 223 218 177
226 498 -93 l251 -250 182 0 c100 0 182 3 182 7 0 4 -59 67 -130 138 l-131
131 115 112 c169 165 136 175 451 -138 l251 -250 182 0 c100 0 182 3 182 8 0
4 -170 177 -378 385 l-378 377 -48 0 -49 0 -130 -127 c-72 -71 -164 -161 -204
-200 -41 -40 -77 -73 -81 -73 -3 0 -97 90 -207 200 l-201 200 -48 0 c-47 0
-51 -3 -128 -77z"/>
<path d="M70 890 l0 -40 1385 0 1385 0 0 40 0 40 -1385 0 -1385 0 0 -40z"/>
</g>
</svg>
