<?xml version="1.0" encoding="utf-8"?>
<!-- Generator: Adobe Illustrator 16.0.0, SVG Export Plug-In . SVG Version: 6.00 Build 0)  -->
<!DOCTYPE svg PUBLIC "-//W3C//DTD SVG 1.1//EN" "http://www.w3.org/Graphics/SVG/1.1/DTD/svg11.dtd">
<svg version="1.1" id="Layer_1" xmlns="http://www.w3.org/2000/svg" xmlns:xlink="http://www.w3.org/1999/xlink" x="0px" y="0px"
	 width="160px" height="160px" viewBox="0 0 160 160" enable-background="new 0 0 160 160" xml:space="preserve">
<g>
	<path fill="#616161" d="M144.166,98.583l-7.951-8.985c-3.854,27.65-27.649,49.001-56.346,49.001
		c-29.452,0-53.749-22.494-56.613-51.204H8.399c1.328,17.006,8.585,32.813,20.773,45.003c13.541,13.54,31.547,20.997,50.697,20.997
		c19.148,0,37.154-7.457,50.694-20.997c11.354-11.354,18.431-25.849,20.421-41.525L144.166,98.583z"/>
	<path fill="#616161" d="M130.563,31.01c-13.54-13.541-31.546-20.998-50.694-20.998c-19.15,0-37.156,7.457-50.696,20.998
		C17.805,42.378,10.724,56.896,8.746,72.601l7.087-8.012l7.754,8.766c4.054-27.427,27.746-48.544,56.282-48.544
		c29.659,0,54.087,22.815,56.666,51.821h14.85C150.188,59.388,142.903,43.345,130.563,31.01z"/>
	<g>
		<g>
			<path fill="#616161" d="M79.73,34.17c-26.21,0-47.531,21.325-47.531,47.532c0,26.21,21.325,47.53,47.531,47.53
				c26.206,0,47.53-21.325,47.53-47.53C127.265,55.495,105.94,34.17,79.73,34.17z M91.384,79.538
				c-0.062-6.661-0.415-13.063-1.027-18.842c3.398-0.442,6.752-1.097,10.056-1.963c2.406,6.187,3.804,13.308,4.026,20.8H91.384
				V79.538z M80.435,123.723c-0.728-0.465-2.656-3.349-4.312-12.323c-0.389-2.11-0.731-4.396-1.028-6.811
				c1.537-0.088,3.084-0.138,4.64-0.138c2.025,0,4.038,0.085,6.033,0.234c-0.293,2.38-0.633,4.627-1.018,6.711
				C83.091,120.37,81.162,123.258,80.435,123.723z M79.73,100.119c-1.709,0-3.412,0.059-5.102,0.158
				c-0.477-5.108-0.755-10.668-0.813-16.409h13.229c-0.059,5.78-0.339,11.373-0.819,16.51
				C84.08,100.212,81.913,100.119,79.73,100.119z M55.025,79.538c0.223-7.497,1.616-14.618,4.026-20.802
				c3.75,0.985,7.569,1.699,11.446,2.134c-0.6,5.731-0.951,12.073-1.013,18.668H55.025z M84.747,52.008
				c0.28,1.524,0.539,3.137,0.772,4.827c-1.917,0.142-3.845,0.22-5.785,0.22c-1.471,0-2.938-0.042-4.393-0.124
				c0.235-1.721,0.497-3.369,0.785-4.92c1.655-8.97,3.584-11.857,4.312-12.323C81.162,40.149,83.091,43.037,84.747,52.008z
				 M74.833,40.488c-1.036,2.341-1.94,5.501-2.741,9.521c-0.404,2.037-0.762,4.231-1.078,6.556
				c-3.449-0.384-6.853-1.001-10.194-1.848c0.546-1.093,1.125-2.148,1.74-3.161C66.021,45.867,70.263,42.074,74.833,40.488z
				 M73.82,79.538c0.062-6.46,0.408-12.686,1.001-18.303c1.628,0.096,3.265,0.146,4.913,0.146c2.117,0,4.219-0.084,6.31-0.242
				c0.597,5.641,0.947,11.9,1.009,18.394H73.82V79.538z M89.832,56.396c-0.308-2.26-0.661-4.4-1.055-6.387
				c-0.724-3.634-1.532-6.564-2.445-8.824c3.92,1.867,7.546,5.394,10.576,10.372c0.616,1.012,1.196,2.067,1.741,3.161
				C95.749,55.453,92.809,56.007,89.832,56.396z M100.604,49.308c-2.11-3.469-4.504-6.333-7.107-8.554
				c6.248,2.106,11.857,5.605,16.466,10.125c-2.332,0.997-4.696,1.883-7.095,2.641C102.167,52.057,101.42,50.644,100.604,49.308z
				 M58.856,49.308c-0.812,1.336-1.563,2.749-2.264,4.212c-2.398-0.758-4.766-1.644-7.095-2.641
				c4.609-4.52,10.218-8.019,16.466-10.125C63.36,42.972,60.966,45.839,58.856,49.308z M54.883,57.521
				c-2.515,6.602-3.965,14.132-4.188,22.018h-14.11c0.473-9.575,4.081-18.338,9.813-25.286
				C49.177,55.503,52.007,56.593,54.883,57.521z M50.694,83.868c0.204,7.216,1.436,14.131,3.569,20.313
				c-3.042,1.004-6.033,2.202-8.966,3.576c-5.09-6.71-8.266-14.946-8.713-23.89H50.694L50.694,83.868z M55.025,83.868h14.46
				c0.054,5.883,0.339,11.558,0.824,16.787c-4.035,0.461-8.004,1.228-11.896,2.282C56.4,97.17,55.229,90.676,55.025,83.868z
				 M70.771,104.963c0.366,3.025,0.809,5.859,1.32,8.435c0.801,4.023,1.705,7.181,2.741,9.521
				c-4.57-1.586-8.813-5.379-12.278-11.072c-0.927-1.525-1.774-3.154-2.544-4.859C63.538,106.057,67.125,105.382,70.771,104.963z
				 M86.329,122.218c0.911-2.26,1.725-5.186,2.444-8.824c0.501-2.525,0.936-5.297,1.298-8.255c3.172,0.425,6.298,1.04,9.37,1.854
				c-0.766,1.705-1.613,3.329-2.54,4.854C93.874,116.824,90.248,120.351,86.329,122.218z M90.541,100.832
				c0.496-5.275,0.785-11.016,0.84-16.964h13.051c-0.204,6.803-1.371,13.294-3.385,19.062
				C97.605,101.995,94.102,101.302,90.541,100.832z M108.77,83.868h14.11c-0.443,8.943-3.623,17.18-8.708,23.886
				c-2.934-1.379-5.926-2.568-8.971-3.572C107.33,98.002,108.562,91.084,108.77,83.868z M108.77,79.538
				c-0.223-7.885-1.675-15.416-4.188-22.018c2.876-0.925,5.706-2.014,8.485-3.266c5.732,6.95,9.34,15.712,9.813,25.287h-14.11
				V79.538z M48.195,111.196c2.506-1.129,5.051-2.127,7.638-2.973c0.901,2.068,1.906,4.039,3.022,5.875
				c2.11,3.469,4.504,6.333,7.107,8.555C59.114,120.344,53.031,116.362,48.195,111.196z M93.501,122.653
				c2.6-2.218,4.997-5.086,7.106-8.555c1.118-1.836,2.122-3.804,3.022-5.871c2.588,0.847,5.137,1.836,7.643,2.969
				C106.434,116.362,100.347,120.344,93.501,122.653z"/>
			<g>
				<path fill="#FFFFFF" d="M17.478,54.104l3.045-6.066l1.197,0.6l-2.41,4.801l1.525,0.766l1.771-3.53l1.197,0.601l-1.771,3.53
					l2.734,1.371l-0.636,1.27L17.478,54.104z"/>
				<path fill="#FFFFFF" d="M23.113,43.86l3.045-4.084c0.758-1.02,1.982-1.163,3.056-0.362c0.955,0.712,1.179,1.81,0.609,2.768
					l3.569,0.347l-0.959,1.286l-3.519-0.396l-1.436,1.929l2.452,1.829l-0.851,1.14L23.113,43.86z M28.603,41.597
					c0.254-0.339,0.181-0.739-0.181-1.004l-0.173-0.131c-0.358-0.266-0.762-0.224-1.013,0.115l-2.198,2.945l1.367,1.02
					L28.603,41.597z"/>
				<path fill="#FFFFFF" d="M30.767,34.39l5.055-4.74l0.916,0.978l-4.019,3.77l1.167,1.243l2.991-2.803l0.917,0.978l-2.991,2.803
					l1.174,1.251l4.02-3.769l0.916,0.978l-5.054,4.74L30.767,34.39z"/>
				<path fill="#FFFFFF" d="M39.803,26.548l5.802-3.785l0.731,1.121l-4.612,3.011l0.932,1.428l3.434-2.241l0.732,1.121l-3.435,2.241
					l0.939,1.44l4.613-3.011l0.731,1.121l-5.802,3.784L39.803,26.548z"/>
				<path fill="#FFFFFF" d="M55.453,18.024l1.324-0.412l2.067,4.585l0.365-3.785l1.355-0.423l2.538,2.868l-1.005-4.905l1.324-0.412
					l1.409,7.356l-1.409,0.439l-3.1-3.7l-0.412,4.797l-1.42,0.443L55.453,18.024z"/>
				<path fill="#FFFFFF" d="M68.107,18.363c-0.273-2.214,1.071-4.031,3.173-4.293c2.102-0.261,3.85,1.174,4.123,3.388
					c0.273,2.213-1.07,4.031-3.172,4.292C70.128,22.012,68.385,20.58,68.107,18.363z M73.936,17.643
					c-0.173-1.409-1.225-2.329-2.483-2.171c-1.259,0.158-2.041,1.301-1.867,2.71c0.173,1.397,1.208,2.317,2.472,2.164
					C73.32,20.188,74.109,19.041,73.936,17.643z"/>
				<path fill="#FFFFFF" d="M79.857,13.612l5.09,0.266c1.27,0.065,2.07,1,1.998,2.34c-0.063,1.19-0.848,1.987-1.965,2.044
					l1.695,3.161l-1.603-0.084l-1.624-3.146l-2.403-0.123l-0.157,3.053l-1.417-0.073L79.857,13.612z M84.788,16.919
					c0.425,0.023,0.713-0.262,0.736-0.708l0.011-0.216c0.023-0.447-0.234-0.758-0.657-0.782l-3.673-0.192l-0.089,1.705
					L84.788,16.919z"/>
				<path fill="#FFFFFF" d="M91.934,14.74l1.387,0.308l-1.316,5.959l4.139,0.913l-0.289,1.309l-5.525-1.22L91.934,14.74z"/>
				<path fill="#FFFFFF" d="M101.994,17.335l3.279,1.324c1.964,0.793,2.827,2.822,2.019,4.828c-0.801,1.986-2.838,2.868-4.802,2.075
					l-3.28-1.324L101.994,17.335z M102.992,24.319c1.177,0.478,2.401-0.104,2.922-1.39c0.515-1.274,0.042-2.552-1.137-3.03
					l-1.963-0.793l-1.782,4.419L102.992,24.319z"/>
				<path fill="#FFFFFF" d="M118.067,25.374l1.094,0.851l-2.58,4.315l3.315-1.863l1.119,0.87l-0.9,3.723l3.45-3.626l1.093,0.851
					l-5.231,5.363l-1.167-0.904l1.263-4.659l-4.17,2.402l-1.174-0.912L118.067,25.374z"/>
				<path fill="#FFFFFF" d="M127.954,33.747l0.989,1.016l-5.332,5.194l-0.99-1.017L127.954,33.747z"/>
				<path fill="#FFFFFF" d="M132.381,38.521l2.106,2.845c1.259,1.702,0.936,3.881-0.805,5.17c-1.72,1.275-3.919,0.962-5.178-0.739
					l-2.105-2.845L132.381,38.521z M129.582,45c0.755,1.02,2.104,1.167,3.216,0.338c1.104-0.816,1.37-2.152,0.611-3.176
					l-1.259-1.701l-3.826,2.833L129.582,45z"/>
				<path fill="#FFFFFF" d="M139.211,48.542l3.076,6.211l-1.201,0.597l-2.444-4.936l-1.528,0.758l1.82,3.673l-1.201,0.597
					l-1.821-3.672l-1.539,0.762l2.445,4.936l-1.202,0.597l-3.076-6.211L139.211,48.542z"/>
			</g>
			<g>
				<path fill="#FFFFFF" d="M40.946,134.934l1.178,0.771c-0.347,0.526,0.1,1.309,1.085,1.955c1.074,0.701,1.872,0.758,2.252,0.174
					c0.327-0.497-0.054-1.048-1.244-1.826c-1.867-1.22-2.329-2.275-1.509-3.53c0.835-1.274,2.225-1.336,4-0.173
					c1.629,1.066,2.203,2.576,1.417,3.772l-1.179-0.77c0.347-0.527-0.054-1.278-0.974-1.883c-0.998-0.649-1.721-0.717-2.079-0.169
					c-0.308,0.47,0.039,0.966,1.167,1.709c1.944,1.271,2.415,2.372,1.583,3.646c-0.866,1.321-2.325,1.378-4.173,0.171
					C40.78,137.672,40.161,136.131,40.946,134.934z"/>
				<path fill="#FFFFFF" d="M52.646,136.001l1.305,0.558l-1.201,2.799l3.896,1.668l1.202-2.799l1.304,0.558l-2.929,6.842
					l-1.305-0.559l1.205-2.811l-3.896-1.667l-1.205,2.811l-1.305-0.559L52.646,136.001z"/>
				<path fill="#FFFFFF" d="M63.064,139.947l1.371,0.372l-1.96,7.181l-1.371-0.373L63.064,139.947z"/>
				<path fill="#FFFFFF" d="M68.407,141.306l5.051,0.663c1.259,0.165,1.982,1.161,1.81,2.49c-0.166,1.271-1.12,2.025-2.379,1.859
					l-3.646-0.478l-0.396,3.029l-1.41-0.185L68.407,141.306z M73.066,144.986c0.419,0.054,0.731-0.204,0.79-0.647l0.027-0.215
					c0.058-0.442-0.177-0.774-0.597-0.827l-3.646-0.479l-0.224,1.69L73.066,144.986z"/>
				<path fill="#FFFFFF" d="M79.087,142.356l5.09-0.227c1.271-0.058,2.155,0.797,2.214,2.137c0.058,1.282-0.751,2.187-2.021,2.244
					l-3.673,0.166l0.135,3.053l-1.417,0.061L79.087,142.356z M84.316,145.171c0.422-0.019,0.685-0.327,0.664-0.773l-0.011-0.216
					c-0.02-0.445-0.308-0.731-0.731-0.712l-3.673,0.165l0.077,1.705L84.316,145.171z"/>
				<path fill="#FFFFFF" d="M89.925,141.414l1.397-0.255l1.328,7.323l-1.397,0.254L89.925,141.414z"/>
				<path fill="#FFFFFF" d="M95.322,140.348l1.209-0.396l5.768,3.499l-1.606-4.874l1.348-0.442l2.325,7.068l-1.216,0.4l-5.764-3.516
					l1.605,4.882l-1.348,0.443L95.322,140.348z"/>
				<path fill="#FFFFFF" d="M107.111,139.997c-1.063-1.964-0.478-4.144,1.385-5.155c1.409-0.766,2.984-0.551,4.128,0.431
					l-1.429,0.801c-0.636-0.331-1.374-0.35-2.029,0.008c-1.116,0.604-1.424,1.96-0.746,3.207c0.67,1.235,1.975,1.717,3.091,1.109
					c0.905-0.493,1.278-1.486,1.039-2.502l-1.851,1.003l-0.64-1.177l3.191-1.729c0.124,0.154,0.228,0.32,0.323,0.501
					c0.104,0.192,0.208,0.408,0.277,0.604c0.654,1.806,0.02,3.639-1.663,4.546C110.322,142.657,108.174,141.961,107.111,139.997z"/>
			</g>
		</g>
	</g>
	<polygon fill="#616161" points="15.833,71.098 1.423,87.395 15.833,87.395 30.247,87.395 	"/>
	<polygon fill="#616161" points="144.166,92.069 158.576,75.773 144.166,75.773 129.752,75.773 	"/>
	<path fill="none" d="M79.869,24.808c-28.536,0-52.228,21.116-56.282,48.544l16.239,18.359L23.587,73.352
		c-0.404,2.725-0.616,5.517-0.616,8.351c0,31.372,25.525,56.894,56.894,56.894c28.694,0,52.49-21.352,56.347-49.002l-16.043-18.137
		l16.043,18.137c0.358-2.579,0.551-5.217,0.551-7.892C136.767,50.333,111.241,24.808,79.869,24.808z"/>
</g>
</svg>
