<?xml version="1.0" encoding="utf-8"?>
<!-- Generator: Adobe Illustrator 16.0.0, SVG Export Plug-In . SVG Version: 6.00 Build 0)  -->
<!DOCTYPE svg PUBLIC "-//W3C//DTD SVG 1.1//EN" "http://www.w3.org/Graphics/SVG/1.1/DTD/svg11.dtd">
<svg version="1.1" id="Layer_1" xmlns="http://www.w3.org/2000/svg" xmlns:xlink="http://www.w3.org/1999/xlink" x="0px" y="0px"
	 width="34.793px" height="34.447px" viewBox="0 0 34.793 34.447" enable-background="new 0 0 34.793 34.447" xml:space="preserve">
<path fill="#7F7F7F" d="M32.772,17.265c0-1.432,1.255-3.011,0.901-4.333c-0.365-1.368-2.252-2.106-2.945-3.304
	c-0.692-1.198-0.406-3.214-1.393-4.2s-2.984-0.69-4.199-1.392c-1.215-0.703-1.932-2.58-3.304-2.945
	c-1.321-0.354-2.897,0.901-4.333,0.901c-1.435,0-3.011-1.254-4.333-0.901c-1.368,0.365-2.106,2.252-3.304,2.945
	c-1.198,0.692-3.214,0.406-4.2,1.392c-0.985,0.987-0.69,2.985-1.392,4.2c-0.703,1.214-2.58,1.932-2.945,3.304
	c-0.353,1.322,0.901,2.898,0.901,4.333c0,1.433-1.254,3.01-0.901,4.331c0.366,1.369,2.252,2.107,2.945,3.305
	c0.692,1.197,0.406,3.215,1.392,4.199c0.987,0.986,2.985,0.689,4.2,1.393c1.214,0.703,1.932,2.58,3.304,2.945
	c1.322,0.354,2.898-0.902,4.333-0.902c1.436,0,3.012,1.256,4.333,0.902c1.368-0.365,2.106-2.252,3.304-2.945
	c1.198-0.693,3.215-0.406,4.199-1.393c0.986-0.986,0.69-2.984,1.393-4.199c0.703-1.215,2.58-1.932,2.945-3.305
	C34.027,20.275,32.772,18.696,32.772,17.265z M17.5,30.564c-7.346,0-13.302-5.955-13.302-13.299c0-7.346,5.956-13.301,13.302-13.301
	c7.346,0,13.302,5.956,13.302,13.301c0.001,7.344-5.953,13.299-13.299,13.299C17.502,30.564,17.501,30.564,17.5,30.564z"/>
<path fill="#7F7F7F" d="M8.221,20.023l0.13,0.389l-0.947,0.439l0.755,0.063l0.123,0.369l-0.552,0.521l1.021-0.229l0.129,0.387
	l-1.773,0.373l-0.131-0.391l0.787-0.691l-1.043-0.07l-0.138-0.396L8.221,20.023z"/>
<path fill="#7F7F7F" d="M8.17,24.351l1.846-0.584l0.351,0.432l-0.944,1.688L9.14,25.542l0.233-0.414l-0.476-0.584l-0.448,0.146
	L8.17,24.351z M9.286,24.416l0.294,0.359l0.294-0.545L9.286,24.416z"/>
<path fill="#7F7F7F" d="M11.141,27.314l0.899-1.561l1.075,0.621c0.254,0.133,0.353,0.445,0.221,0.697
	c-0.009,0.02-0.02,0.035-0.031,0.053c-0.115,0.225-0.377,0.33-0.615,0.25c0.001,0.016,0.001,0.029,0,0.045l0.012,0.799l-0.404-0.234
	l-0.011-0.828l-0.435-0.25l-0.354,0.615L11.141,27.314z M12.048,26.576l0.715,0.414c0.057,0.033,0.132,0.016,0.167-0.041
	c0.003-0.006,0.006-0.012,0.008-0.018l0.025-0.043c0.041-0.053,0.031-0.127-0.021-0.168c-0.005-0.004-0.011-0.008-0.017-0.012
	l-0.715-0.414L12.048,26.576z"/>
<path fill="#7F7F7F" d="M14.897,28.976l0.276-1.779L16.4,27.39c0.284,0.029,0.491,0.283,0.463,0.566
	c-0.002,0.023-0.006,0.047-0.012,0.07c-0.027,0.252-0.234,0.445-0.486,0.455c0.008,0.012,0.014,0.025,0.019,0.041l0.3,0.74
	l-0.464-0.072l-0.306-0.766l-0.496-0.08l-0.11,0.701L14.897,28.976z M15.479,27.96l0.815,0.129c0.066,0.01,0.128-0.037,0.137-0.104
	c0-0.004,0.001-0.008,0.001-0.014v-0.047c0.021-0.063-0.014-0.129-0.076-0.15c-0.007-0.002-0.015-0.004-0.023-0.004l-0.815-0.129
	L15.479,27.96z"/>
<path fill="#7F7F7F" d="M18.846,29.21l0.331-1.91l0.552-0.113l1.065,1.617l-0.438,0.09L20.098,28.5l-0.737,0.152l-0.077,0.467
	L18.846,29.21z M19.417,28.244l0.455-0.096l-0.351-0.512L19.417,28.244z"/>
<path fill="#7F7F7F" d="M21.866,26.421l0.302-0.193l1.428,0.414l-0.605-0.943l0.348-0.223l0.973,1.518l-0.305,0.195l-1.424-0.422
	l0.607,0.945l-0.352,0.225L21.866,26.421z"/>
<path fill="#7F7F7F" d="M25.229,24.074l-0.4,0.531l-0.307-0.23l1.051-1.396l0.306,0.23l-0.4,0.531l1.134,0.852l-0.252,0.334
	L25.229,24.074z"/>
<path fill="#7F7F7F" d="M27.691,20.947h0.016l0.063,0.02l0.191,0.061l0.303,0.094l0.035,0.01l-0.123,0.395l-0.035-0.01l-0.303-0.094
	l-0.191-0.061l-0.062-0.02h-0.017c-0.068,0.008-0.135,0.021-0.2,0.045c-0.065,0.021-0.131,0.045-0.212,0.066l-0.916,0.242
	l0.139-0.457l0.611-0.164c0.083-0.021,0.168-0.037,0.252-0.049c-0.063-0.057-0.123-0.117-0.178-0.182l-0.414-0.475l0.139-0.461
	l0.618,0.713c0.054,0.066,0.094,0.125,0.138,0.178C27.588,20.855,27.637,20.904,27.691,20.947z"/>
<polygon fill="#7F7F7F" points="19.336,14.688 23.621,15.294 20.533,18.326 21.281,22.589 17.441,20.589 13.618,22.621 
	14.333,18.351 11.221,15.341 15.503,14.703 17.404,10.813 "/>
<polygon fill="#7F7F7F" points="7.367,16.849 8.282,16.977 7.622,17.625 7.782,18.534 6.962,18.107 6.146,18.54 6.298,17.63 
	5.633,16.988 6.548,16.852 6.954,16.021 "/>
<polygon fill="#7F7F7F" points="28.342,16.849 29.258,16.977 28.598,17.625 28.758,18.534 27.938,18.107 27.121,18.54 27.273,17.63 
	26.609,16.988 27.523,16.852 27.93,16.021 "/>
<path fill="#7F7F7F" d="M7.414,13.963l0.138-0.351c0.138,0.057,0.261-0.036,0.353-0.267s0.057-0.383-0.098-0.445
	c-0.154-0.063-0.284,0.023-0.376,0.254l-0.276,0.67l-0.97-0.397l0.505-1.256L7.005,12.3l-0.368,0.919l0.352,0.138l0.138-0.333
	c0.181-0.45,0.48-0.623,0.836-0.48c0.356,0.143,0.473,0.483,0.291,0.935S7.766,14.104,7.414,13.963z"/>
<path fill="#7F7F7F" d="M9.975,9.635L8.576,9.261l0.301-0.286l0.648,0.167C9.648,9.175,9.768,9.222,9.881,9.28l0,0
	c-0.05-0.116-0.089-0.237-0.116-0.361L9.627,8.266l0.304-0.29l0.305,1.413l0.459,0.483l-0.262,0.25L9.975,9.635z"/>
<path fill="#7F7F7F" d="M11.137,7.114l1.563-0.828l0.16,0.302l-1.242,0.657l0.204,0.385l0.925-0.49l0.16,0.302l-0.924,0.49
	l0.206,0.388l1.242-0.658l0.16,0.302l-1.561,0.828L11.137,7.114z"/>
<path fill="#7F7F7F" d="M14.806,5.632l0.53-0.106l1.104,1.714l-0.381,0.078l-0.276-0.439l-0.868,0.175l-0.084,0.51L14.456,7.64
	L14.806,5.632z M15.589,6.567l-0.471-0.707l-0.147,0.828L15.589,6.567z"/>
<path fill="#7F7F7F" d="M17.585,5.313l1.295,0.113c0.29,0.016,0.512,0.264,0.495,0.554c0,0.021-0.003,0.041-0.006,0.061
	c-0.008,0.281-0.238,0.505-0.52,0.502l0.404,0.821L18.84,7.331l-0.387-0.817L17.842,6.46l-0.067,0.777l-0.36-0.032L17.585,5.313z
	 M18.813,6.2c0.096,0.012,0.182-0.057,0.193-0.152c0.001-0.007,0.001-0.015,0.001-0.022V5.971c0.018-0.094-0.044-0.184-0.138-0.202
	c-0.008-0.001-0.015-0.002-0.022-0.002l-0.936-0.082l-0.037,0.433L18.813,6.2z"/>
<path fill="#7F7F7F" d="M20.412,7.068l0.335,0.13c-0.058,0.15,0.094,0.323,0.376,0.432c0.305,0.117,0.506,0.09,0.57-0.076
	c0.056-0.138-0.068-0.26-0.406-0.391c-0.531-0.206-0.701-0.444-0.563-0.802s0.485-0.451,0.989-0.255
	c0.463,0.179,0.69,0.527,0.553,0.867l-0.336-0.13c0.059-0.15-0.08-0.316-0.342-0.414c-0.283-0.11-0.469-0.087-0.527,0.068
	c-0.053,0.138,0.061,0.24,0.383,0.364c0.551,0.215,0.729,0.465,0.588,0.828c-0.142,0.363-0.509,0.466-1.034,0.264
	C20.517,7.761,20.279,7.409,20.412,7.068z"/>
<path fill="#7F7F7F" d="M25.35,8.393l0.266,0.247l-1.295,1.39l-0.266-0.247L25.35,8.393z"/>
<path fill="#7F7F7F" d="M26.73,9.821l0.183,0.269l-0.461,1.656l1.086-0.731l0.203,0.301l-1.576,1.061l-0.183-0.276l0.464-1.656
	l-1.08,0.738l-0.203-0.301L26.73,9.821z"/>
<path fill="#7F7F7F" d="M28.311,13.507l-0.219-0.69l0.325-0.104l0.552,1.721l-0.325,0.104l-0.22-0.69l-1.484,0.474l-0.109-0.345
	L28.311,13.507z"/>
</svg>
